<svg xmlns="http://www.w3.org/2000/svg" fill="none" viewBox="0 0 1440 1057"><path fill="url(#prefix__a)" d="M-353.061 483.136c38.188 284.806 508.562 458.932 1050.611 388.921 542.05-70.011 950.51-357.648 912.32-642.454-38.19-284.807-508.56-458.933-1050.611-388.921C3.5-116.5-391.249 198.33-353.061 483.136Z"/><mask id="prefix__c" width="1968" height="1064" x="-357" y="-175" mask-type="alpha" maskUnits="userSpaceOnUse"><ellipse fill="url(#prefix__b)" rx="989.605" ry="520.297" transform="matrix(-.99164 .12903 .13193 .99126 627.094 357.433)"/></mask><g mask="url(#prefix__c)"><path fill="url(#prefix__d)" d="M1256.5 865.39c-216.32-51.499-541.057-107.91-564.99 0L656.524 1079H-87.69c-52.98-266.137-128.551-920.687-6.998-918.268 151.942 3.024 288.889 236.758 637.256 245.399 348.366 8.641 584.272-365.506 934.642-277.802 350.36 87.704 69.97 439.817 25.99 508.944-43.98 69.126 23.7 292.491-246.7 228.117Z"/></g><circle cx="1075.5" cy="357.5" r="542.5" fill="url(#prefix__e)" fill-opacity=".3"/><circle cx="908.5" cy="307.5" r="115" stroke="url(#prefix__f)" stroke-width="53"/><circle cx="1221.5" cy="489.5" r="69" stroke="url(#prefix__g)" stroke-width="91"/><defs><linearGradient id="prefix__a" x1="563.437" x2="790.813" y1="-92.826" y2="844.221" gradientUnits="userSpaceOnUse"><stop stop-color="#012586"/><stop offset="1" stop-color="#1376E9"/></linearGradient><linearGradient id="prefix__b" x1="994.301" x2="888.939" y1="66.48" y2="1024.44" gradientUnits="userSpaceOnUse"><stop stop-color="#012586"/><stop offset="1" stop-color="#1376E9"/></linearGradient><linearGradient id="prefix__d" x1="745.5" x2="745.5" y1="115" y2="956.119" gradientUnits="userSpaceOnUse"><stop stop-color="#0C55D5"/><stop offset="1" stop-color="#133C82" stop-opacity="0"/></linearGradient><radialGradient id="prefix__e" cx="0" cy="0" r="1" gradientTransform="rotate(90 368 725) scale(833.5)" gradientUnits="userSpaceOnUse"><stop stop-color="#3373D3"/><stop offset=".505" stop-color="#6D99DB" stop-opacity="0"/></radialGradient><linearGradient id="prefix__f" x1="908.5" x2="908.5" y1="166" y2="443.046" gradientUnits="userSpaceOnUse"><stop stop-color="#186BE8"/><stop offset="1" stop-color="#4F7EF4" stop-opacity="0"/></linearGradient><linearGradient id="prefix__g" x1="1221.5" x2="1221.5" y1="375" y2="599.182" gradientUnits="userSpaceOnUse"><stop stop-color="#186BE8"/><stop offset="1" stop-color="#4F7EF4" stop-opacity="0"/></linearGradient></defs></svg>