<svg width="39" height="39" viewBox="0 0 39 39" fill="none" xmlns="http://www.w3.org/2000/svg">
<g clip-path="url(#clip0_4892_35148)">
<rect x="0.203125" width="39" height="39" rx="9.75" fill="#1166CB"/>
<path fill-rule="evenodd" clip-rule="evenodd" d="M23.8361 29.1559C25.1991 29.7522 25.7102 28.5028 25.7102 28.5028L29.3164 10.3865C29.288 9.16554 27.6411 9.90381 27.6411 9.90381L7.45199 17.8261C7.45199 17.8261 6.48654 18.1669 6.57173 18.7632C6.65692 19.3595 7.42359 19.6434 7.42359 19.6434L12.5064 21.3471C12.5064 21.3471 14.0397 26.3731 14.3521 27.3386C14.636 28.2756 14.8916 28.304 14.8916 28.304C15.1755 28.4176 15.4311 28.2188 15.4311 28.2188L18.7249 25.2373L23.8361 29.1559ZM24.7182 13.5956C24.7182 13.5956 25.4281 13.1696 25.3997 13.5956C25.3997 13.5956 25.5133 13.6523 25.1442 14.0499C24.8034 14.3906 16.7675 21.603 15.6885 22.5685C15.6033 22.6253 15.5465 22.7105 15.5465 22.824L15.2342 25.4932C15.1774 25.7772 14.8083 25.8056 14.7231 25.55L13.3885 21.1771C13.3317 21.0067 13.3885 20.808 13.5589 20.6944L24.7182 13.5956Z" fill="white"/>
</g>
<defs>
<clipPath id="clip0_4892_35148">
<rect width="39" height="39" fill="white"/>
</clipPath>
</defs>
</svg>
