<svg width="39" height="39" viewBox="0 0 39 39" fill="none" xmlns="http://www.w3.org/2000/svg">
<g id="WhatsApp" clip-path="url(#clip0_4892_35144)">
<rect id="Rectangle 2690" x="0.203125" width="39" height="39" rx="9.75" fill="#1166CB"/>
<g id="WhatsApp_2">
<path id="Vector" d="M28.2364 10.7343C26.1459 8.58231 23.256 7.41406 20.3047 7.41406C14.0331 7.41406 8.99117 12.5174 9.05266 18.7276C9.05266 20.6951 9.60604 22.6012 10.5283 24.3228L8.92969 30.1641L14.8939 28.6269C16.554 29.5492 18.3986 29.9796 20.2432 29.9796C26.4533 29.9796 31.4952 24.8762 31.4952 18.6661C31.4952 15.6533 30.327 12.8249 28.2364 10.7343ZM20.3047 28.0735C18.6446 28.0735 16.9844 27.6431 15.5702 26.7823L15.2013 26.5978L11.6351 27.5201L12.5574 24.0154L12.3114 23.6465C9.60604 19.281 10.8973 13.5012 15.3243 10.7958C19.7513 8.09041 25.4696 9.38163 28.175 13.8087C30.8804 18.2357 29.5891 23.9539 25.1621 26.6593C23.7479 27.5816 22.0263 28.0735 20.3047 28.0735ZM25.7155 21.2485L25.0391 20.9411C25.0391 20.9411 24.0554 20.5107 23.4405 20.2033C23.379 20.2033 23.3175 20.1418 23.256 20.1418C23.0716 20.1418 22.9486 20.2033 22.8256 20.2647C22.8256 20.2647 22.7641 20.3262 21.9033 21.31C21.8419 21.433 21.7189 21.4945 21.5959 21.4945H21.5344C21.4729 21.4945 21.35 21.433 21.2885 21.3715L20.981 21.2485C20.3047 20.9411 19.6898 20.5722 19.1979 20.0803C19.075 19.9573 18.8905 19.8343 18.7675 19.7114C18.3371 19.281 17.9067 18.7891 17.5993 18.2357L17.5378 18.1127C17.4763 18.0512 17.4763 17.9897 17.4148 17.8668C17.4148 17.7438 17.4148 17.6208 17.4763 17.5593C17.4763 17.5593 17.7223 17.2519 17.9067 17.0674C18.0297 16.9445 18.0912 16.76 18.2141 16.637C18.3371 16.4526 18.3986 16.2066 18.3371 16.0222C18.2756 15.7147 17.5378 14.0546 17.3533 13.6857C17.2304 13.5012 17.1074 13.4397 16.9229 13.3783H16.7385C16.6155 13.3783 16.431 13.3783 16.2466 13.3783C16.1236 13.3783 16.0006 13.4397 15.8777 13.4397L15.8162 13.5012C15.6932 13.5627 15.5702 13.6857 15.4473 13.7472C15.3243 13.8701 15.2628 13.9931 15.1398 14.1161C14.7094 14.6695 14.4635 15.3458 14.4635 16.0222C14.4635 16.5141 14.5864 17.006 14.7709 17.4364L14.8324 17.6208C15.3858 18.7891 16.1236 19.8343 17.1074 20.7566L17.3533 21.0026C17.5378 21.187 17.7223 21.31 17.8452 21.4945C19.1364 22.6012 20.6121 23.4005 22.2723 23.831C22.4567 23.8924 22.7027 23.8924 22.8871 23.9539C23.0716 23.9539 23.3175 23.9539 23.502 23.9539C23.8094 23.9539 24.1783 23.831 24.4243 23.708C24.6087 23.585 24.7317 23.585 24.8547 23.462L24.9777 23.3391C25.1006 23.2161 25.2236 23.1546 25.3466 23.0316C25.4696 22.9087 25.5925 22.7857 25.654 22.6627C25.777 22.4168 25.8385 22.1093 25.9 21.8019C25.9 21.6789 25.9 21.4945 25.9 21.3715C25.9 21.3715 25.8385 21.31 25.7155 21.2485Z" fill="white"/>
</g>
</g>
<defs>
<clipPath id="clip0_4892_35144">
<rect width="39" height="39" fill="white"/>
</clipPath>
</defs>
</svg>
