<svg width="261" height="157" viewBox="0 0 261 157" fill="none" xmlns="http://www.w3.org/2000/svg">
<path opacity="0.08" d="M227.583 141.021C227.583 141.021 246.756 145.562 256.202 124.97C268.449 98.2448 251.264 72.8522 221.607 71.0336C178.843 68.4017 202.535 0.130838 135.051 18.6557C116.07 23.863 74.7974 -3.02065 50.5062 42.5347C46.3711 50.2835 34.0221 49.8995 17.5719 63.1154C-11.4532 86.4296 -1.00235 141.281 23.447 141.53C47.8964 141.767 227.583 141.021 227.583 141.021Z" fill="#8ABAEE"/>
<path d="M90.9668 80.3849C90.9668 80.3849 83.0139 88.0448 77.3115 81.6115C77.3115 81.6115 74.0506 76.8648 74.0623 72.8424C74.0623 72.8424 83.9184 77.9726 84.7546 76.0858C85.5907 74.1989 73.3656 71.1532 73.3656 71.1532C73.3656 71.1532 71.6381 60.0169 73.1512 56.3315C73.1512 56.3315 81.5244 65.4509 81.8751 63.4049C82.2257 61.3589 73.9456 51.4743 73.9456 51.4743C73.9456 51.4743 75.1196 40.9557 81.5028 41.1443C87.886 41.3328 90.0609 44.8142 89.976 46.4006C89.891 47.9871 86.9152 57.417 88.214 57.5421C89.5128 57.6672 93.4174 51.8767 93.3899 47.965C93.3899 47.965 101.902 54.8435 99.8613 59.8587C97.8077 64.8776 94.1275 65.5055 92.9194 68.6208C91.7113 71.736 91.8596 74.335 93.2078 72.9974C94.5561 71.6598 95.6104 66.075 98.5811 64.1591C101.552 62.2432 103.541 60.5659 103.069 65.6574C102.597 70.7488 99.3878 79.1662 95.1773 79.7755C90.9668 80.3849 90.9668 80.3849 90.9668 80.3849Z" fill="#1166CB"/>
<path d="M81.9886 46.2327C81.9886 46.2327 82.5326 74.5934 90.9836 80.3674C90.9836 80.3674 95.2012 81.5169 99.2094 85.5526L101.06 86.1162C101.06 86.1162 95.6116 81.513 95.1979 79.7711C95.1848 79.7749 85.3225 83.0963 81.9886 46.2327Z" fill="#8ABAEE"/>
<path d="M99.1952 85.5505C99.1952 85.5505 104.039 91.3636 112.073 91.3208L112.111 90.2163C112.111 90.2163 103.705 88.7609 100.254 85.4319C96.8236 82.1255 99.1952 85.5505 99.1952 85.5505Z" fill="#8ABAEE"/>
<path d="M83.4282 117.958C83.4282 117.958 79.9731 134.881 66.9308 131.658C66.9308 131.658 58.5267 128.427 54.9693 123.239C54.9693 123.239 72.2127 121.113 71.6141 117.933C71.0156 114.753 52.5786 121.68 52.5786 121.68C52.5786 121.68 40.4805 108.87 39.1694 102.756C39.1694 102.756 58.0465 107.077 56.6779 104.132C55.3225 101.183 35.8953 95.7831 35.8953 95.7831C35.8953 95.7831 28.0837 81.1915 36.4638 75.7667C44.8608 70.3513 50.7287 72.9028 52.0291 75.0156C53.3296 77.1284 57.8412 91.9408 59.6414 90.9424C61.4284 89.9478 61.3202 79.0153 57.8285 74.0081C57.8285 74.0081 74.891 75.3134 76.6968 83.6012C78.5027 91.8889 74.3174 95.9561 75.5247 101.064C76.7283 106.158 79.2252 109.377 79.7813 106.463C80.3374 103.548 76.742 95.4038 78.8724 90.306C80.9991 85.1951 82.0735 81.2661 85.9903 88.2534C89.9034 95.2275 93.2185 108.934 88.3402 113.455C83.4282 117.958 83.4282 117.958 83.4282 117.958Z" fill="#1166CB"/>
<path d="M41.6113 81.9323C41.6113 81.9323 67.4483 117.989 83.4452 117.953C83.4452 117.953 89.8901 115.681 98.6339 117.323L101.506 116.402C101.506 116.402 90.407 115.306 88.3366 113.427C88.3272 113.444 78.5739 126.462 41.6113 81.9323Z" fill="#8ABAEE"/>
<path d="M98.6204 117.325C98.6204 117.325 110.01 120.524 120.326 113.338L119.382 111.876C119.382 111.876 107.256 117.45 99.8807 116.225C92.5222 115.009 98.6204 117.325 98.6204 117.325Z" fill="#8ABAEE"/>
<path d="M173.277 141.242C173.277 143.807 171.813 146.023 170.007 146.183L101.372 152.563C99.2397 152.752 95.4102 150.508 95.4102 147.706V40.9885C95.4102 35.6132 99.169 35.177 101.301 35.2592L170.007 38.8008C171.813 38.8709 173.277 41.0146 173.277 43.5794V141.242Z" fill="#1166CB"/>
<path d="M175.915 141.235C175.915 143.823 174.451 146.059 172.644 146.221L101.92 152.54C99.7884 152.73 98.0469 150.585 98.0469 147.757V40.0723C98.0469 37.2444 99.7884 35.0116 101.92 35.095L172.644 37.8649C174.45 37.9356 175.914 40.0983 175.914 42.6863V141.235H175.915Z" fill="#8ABAEE"/>
<path d="M99.8711 40.1316V147.605C99.8711 149.116 100.797 150.26 101.938 150.162L158.04 145.294L172.661 144.026C173.629 143.942 174.412 142.749 174.412 141.361V42.6344C174.412 41.2463 173.629 40.0928 172.661 40.0574L157.51 39.5036L101.938 37.4718C100.797 37.4301 99.8711 38.6206 99.8711 40.1316Z" fill="#1166CB"/>
<path d="M173.422 135.98C173.422 136.496 173.092 136.942 172.686 136.974L101.855 142.526C101.378 142.564 100.988 142.138 100.988 141.577V40.1224C100.988 39.5616 101.377 39.119 101.855 39.1352L172.686 41.5963C173.092 41.6102 173.422 42.0418 173.422 42.5586V135.98Z" fill="white"/>
<path d="M146.284 144.132L130.986 145.421C130.474 145.464 130.059 145.105 130.059 144.619V143.154C130.059 142.668 130.474 142.24 130.986 142.199L146.284 140.966C146.778 140.926 147.178 141.281 147.178 141.757V143.194C147.178 143.67 146.778 144.09 146.284 144.132Z" fill="#8ABAEE"/>
<path d="M137.855 37.7964C137.831 38.1469 137.401 38.4036 136.894 38.3688C136.388 38.334 135.996 38.0223 136.021 37.6713C136.044 37.3207 136.474 37.0641 136.981 37.0989C137.488 37.1336 137.879 37.4459 137.855 37.7964Z" fill="url(#paint0_linear_5822_44275)"/>
<path d="M123.415 85.1284C125.211 81.6401 128.551 79.1807 132.431 78.7416L132.701 61.6836C121.553 61.6952 111.703 68.6556 107.215 78.9733L123.415 85.1284Z" fill="#2C3854"/>
<path d="M144.889 92.7178C143.977 98.3184 139.388 102.72 133.764 102.91C132.086 102.967 130.483 102.644 129.028 102.013L120.238 117.134C124.324 119.183 128.939 120.186 133.764 119.877C147.781 118.978 158.789 107.251 160.01 93.1372L144.889 92.7178Z" fill="#1166CB"/>
<path d="M117.503 115.542L126.375 100.375C123.722 98.1898 122.016 94.7907 122.016 90.9368C122.016 90.0058 122.117 89.098 122.306 88.2243L106.042 82.1445C105.167 84.9886 104.695 88.0157 104.695 91.1524C104.695 101.538 109.827 110.482 117.503 115.542Z" fill="#0E5198"/>
<path d="M135.488 78.8234C140.609 79.6796 144.545 84.0984 145.013 89.5513L169.727 90.3798C169.727 90.3682 169.727 90.3566 169.727 90.345C169.727 70.1771 155.289 52.8734 135.932 50.5879L135.488 78.8234Z" fill="#8ABAEE"/>
<path d="M182.49 3.71733L129.408 0.858794C125.036 0.623576 121.473 3.8419 121.473 8.04918V37.1346C121.473 41.3418 125.036 44.84 129.408 44.9478L146.762 45.3753L154.861 54.9457C155.349 55.5227 156.204 55.6166 156.806 55.1595L164.594 45.8145L182.49 46.2554C186.537 46.355 189.801 43.1784 189.801 39.1611V11.3857C189.801 7.36786 186.537 3.93517 182.49 3.71733Z" fill="#2C3854"/>
<path d="M183.533 2.87066L130.451 0.0121146C126.079 -0.223104 122.516 2.99522 122.516 7.2025V36.2879C122.516 40.4952 126.079 43.9933 130.451 44.1011L147.805 44.5286L155.706 53.8655C156.268 54.5301 157.29 54.5376 157.862 53.8818L165.637 44.9684L183.533 45.4093C187.58 45.5089 190.844 42.3323 190.844 38.3151V10.539C190.844 6.52118 187.58 3.08849 183.533 2.87066Z" fill="#1166CB"/>
<path d="M174.933 20.1631C174.64 14.658 170.899 10.033 166.24 9.44731C162.535 8.98151 159.237 11.0765 157.482 14.4651C155.723 10.9096 152.395 8.485 148.62 8.58813C143.818 8.71906 139.918 13.0787 139.61 18.6892C139.407 22.3965 140.752 25.8037 142.96 28.1002L156.515 39.1404C157.1 39.6173 157.863 39.6387 158.448 39.1955L171.724 29.1228C173.842 27.0284 175.127 23.7985 174.933 20.1631Z" fill="white"/>
<path d="M180.731 83.2099C180.709 83.2227 180.687 83.2325 180.664 83.2396C172.129 86.9951 160.921 79.4108 157.906 74.699L157.906 74.6986C157.389 73.8913 156.276 72.1512 156.746 70.2502C157.242 68.2398 159.246 67.1048 159.841 66.7682C161.686 65.7236 162.49 65.6628 164.289 65.4143C173.553 64.1344 178.734 83.838 180.664 83.2396C180.686 83.2298 180.709 83.2199 180.731 83.2099Z" fill="#2C3854"/>
<path d="M155.565 82.6958C154.618 82.6245 154.659 85.1656 151.986 87.3266C149.597 89.2587 147.834 88.6272 146.829 90.3265C145.838 92.0008 146.306 94.7192 147.776 95.9045C149.925 97.6385 154.693 95.9039 156.722 92.747C159.319 88.7101 156.987 82.803 155.565 82.6958Z" fill="url(#paint1_linear_5822_44275)"/>
<path d="M155.565 82.6958C154.618 82.6245 154.659 85.1656 151.986 87.3266C149.597 89.2587 147.834 88.6272 146.829 90.3265C145.838 92.0008 146.306 94.7192 147.776 95.9045C149.925 97.6385 154.693 95.9039 156.722 92.747C159.319 88.7101 156.987 82.803 155.565 82.6958Z" fill="#1166CB"/>
<path d="M163.908 101.694C160.342 102.77 159.783 109.682 159.439 113.936C159.052 118.726 158.62 124.062 161.684 128.842C165.537 134.854 173.517 137.798 181.995 136.954C181.907 136.407 181.82 135.86 181.732 135.313C173.031 131.992 170.654 128.26 170.055 125.515C168.781 119.677 175.023 115.928 173.41 109.597C172.195 104.826 167.066 100.741 163.908 101.694Z" fill="#0E5198"/>
<path d="M176.323 106.291C174.388 103.438 172.501 100.552 170.61 97.6689C170.239 97.1023 170.023 96.4453 169.92 95.7559C169.169 96.352 168.45 97.0652 167.787 97.9001C165.992 104.539 164.299 113.38 164.116 123.922C164.001 130.501 165.488 150.394 166.206 155.394C166.469 155.447 166.565 154.763 166.833 154.814C167.162 154.877 167.245 155.473 167.566 155.529C168.52 145.432 169.616 136.319 170.169 131.636C170.356 130.047 170.91 125.28 173.462 121.441C173.503 121.379 177.279 116.215 178.582 114.152C179.016 113.465 179.558 112.574 180.175 111.383C178.712 109.845 177.539 108.085 176.323 106.291Z" fill="#8ABAEE"/>
<path d="M167 153.7C166.852 153.359 166.96 152.205 166.2 153.112C166.298 154.417 166.102 154.089 166.2 155.394C165.931 155.223 165.591 155.036 165.207 154.947C164.746 154.841 163.95 155.007 163.889 155.227C163.511 156.586 166.902 156.884 167.274 156.456C167.645 156.029 167.561 155.529 167.561 155.529C167.216 153.57 166.775 154.369 166.938 153.453C167.052 152.809 167.081 153.889 167 153.7Z" fill="#2C3854"/>
<path d="M166.83 154.814C166.562 154.762 166.466 155.447 166.203 155.393C166.106 154.716 165.994 153.767 165.875 152.614L167.832 152.745C167.741 153.662 167.651 154.591 167.563 155.528C167.242 155.472 167.159 154.876 166.83 154.814Z" fill="#2C3854"/>
<path d="M156.288 81.3421C155.071 83.5726 155.21 85.7944 155.343 86.7666C155.696 89.3418 156.945 90.2989 158.026 92.3771C161.558 99.1723 158.601 109.199 158.08 110.966C157.478 113.008 157.548 115.48 157.548 115.48H165.483C165.483 115.48 176.414 114.765 177.617 113.674C186.226 110.382 188.155 108.653 187.965 107.677C187.91 107.393 187.683 107.213 184.58 105.646C181.332 104.005 180.777 103.797 179.938 103.132C178.187 101.745 177.352 100.082 177.045 99.4695C175.424 96.2408 175.981 93.0433 176.166 91.0428C176.464 87.8216 176.22 83.1392 173.675 76.9726C171.882 76.3689 166.284 74.7369 160.958 77.3161C159.631 77.9586 157.569 78.9928 156.288 81.3421Z" fill="#1166CB"/>
<path d="M156.222 80.6958C157.585 81.4368 155.78 89.4498 153.219 93.4416C152.466 94.6159 149.969 96.431 147.948 95.9108C146.393 95.5104 145.551 92.1374 145.879 89.9718C146.176 88.0037 148.395 86.564 151.217 84.0328C153.99 81.5457 155.422 80.2612 156.222 80.6958Z" fill="#1166CB"/>
<path d="M217.041 86.178L149.669 93.4553C147.711 93.6667 146.113 95.4419 146.113 97.4186V108.554C146.113 110.531 147.711 111.908 149.669 111.63L217.041 102.093C218.532 101.883 219.734 100.326 219.734 98.6162V88.9832C219.735 87.2735 218.533 86.0169 217.041 86.178Z" fill="#2C3854"/>
<path d="M184.653 111.065L180.406 105.799L190.649 104.379L186.381 110.975C185.986 111.585 185.109 111.631 184.653 111.065Z" fill="url(#paint2_linear_5822_44275)"/>
<path d="M217.689 86.5705L150.318 93.8478C148.36 94.0593 146.762 95.8345 146.762 97.8112V108.947C146.762 110.924 148.36 112.3 150.318 112.023L217.689 102.486C219.181 102.275 220.383 100.718 220.383 99.0087V89.3758C220.383 87.6661 219.181 86.4095 217.689 86.5705Z" fill="#8ABAEE"/>
<path d="M185.313 111.462L181.066 106.195L191.309 104.775L187.041 111.371C186.646 111.982 185.77 112.028 185.313 111.462Z" fill="#8ABAEE"/>
<path d="M161.227 102.635L154.95 103.431C153.87 103.568 152.992 104.57 152.992 105.668V107.266L163.126 105.914V104.345C163.126 103.268 162.278 102.502 161.227 102.635Z" fill="#1166CB"/>
<path d="M160.512 99.3439C160.512 100.702 159.436 101.939 158.103 102.105C156.763 102.272 155.672 101.297 155.672 99.9267C155.672 98.5554 156.763 97.3179 158.103 97.1626C159.436 97.0079 160.512 97.9853 160.512 99.3439Z" fill="#1166CB"/>
<path d="M166.241 104.088C166.482 104.083 166.698 104.055 167.078 103.979C167.661 103.864 168.255 103.615 168.696 103.243C169.224 102.794 169.576 102.198 169.727 101.537L169.689 101.529C169.325 101.969 168.796 102.259 168.052 102.354C166.66 102.532 165.477 101.667 165.477 100.003C165.477 98.3256 166.774 96.7614 168.582 96.5499C170.679 96.3048 171.665 97.8598 171.665 99.8435C171.665 101.605 171.129 102.967 170.241 103.933C169.464 104.769 168.394 105.318 167.117 105.541C166.787 105.612 166.457 105.643 166.241 105.659V104.088ZM167.408 99.6471C167.408 100.384 167.788 100.968 168.57 100.87C169.087 100.805 169.451 100.498 169.627 100.174C169.69 100.049 169.727 99.913 169.727 99.6639C169.727 98.7601 169.401 97.9085 168.533 98.0122C167.876 98.091 167.395 98.7538 167.408 99.6471Z" fill="#1166CB"/>
<path d="M177.951 97.2079L174.869 97.5787L174.697 98.8967C174.869 98.8498 175.017 98.8312 175.214 98.8075C175.974 98.7142 176.745 98.8005 177.306 99.1574C177.902 99.5091 178.267 100.159 178.267 101.139C178.267 102.698 177.002 104.246 174.857 104.533C173.884 104.663 173.067 104.538 172.621 104.35L172.956 102.821C173.315 102.957 174.045 103.095 174.772 103C175.546 102.899 176.367 102.404 176.367 101.511C176.367 100.645 175.718 100.196 174.119 100.397C173.674 100.453 173.365 100.518 173.031 100.612L173.563 96.1111L177.952 95.5967V97.2079H177.951Z" fill="#1166CB"/>
<path d="M195.981 95.8105C195.905 94.2364 194.935 93.0678 193.729 93.1043C192.77 93.1333 191.919 93.8807 191.466 94.9316C191.013 93.9867 190.155 93.4357 189.183 93.631C187.948 93.8789 186.947 95.2989 186.868 96.9205C186.816 97.9918 187.162 98.9112 187.728 99.4749L191.217 102.066C191.368 102.179 191.565 102.152 191.715 102L195.149 98.5311C195.698 97.8371 196.031 96.8504 195.981 95.8105Z" fill="#1166CB"/>
<path d="M203.582 92.5898V93.7659L200.623 100.948L198.828 101.188L201.808 94.3598V94.3355L198.492 94.7346V93.1872L203.582 92.5898Z" fill="#1166CB"/>
<path d="M209.272 93.4392L206.555 93.766L206.403 95.0023C206.555 94.9595 206.685 94.9432 206.859 94.9218C207.529 94.8395 208.209 94.9259 208.703 95.2648C209.229 95.5991 209.551 96.2126 209.551 97.1321C209.551 98.5961 208.434 100.04 206.545 100.293C205.687 100.408 204.968 100.284 204.574 100.104L204.869 98.672C205.185 98.8018 205.828 98.9373 206.469 98.8539C207.151 98.7647 207.874 98.3058 207.874 97.4681C207.874 96.6547 207.302 96.2283 205.893 96.4055C205.501 96.4548 205.229 96.5133 204.934 96.5991L205.403 92.3784L209.271 91.9248V93.4392H209.272Z" fill="#1166CB"/>
<path d="M210.461 97.5831C210.461 96.641 210.941 95.9284 211.695 95.4597V95.4238C211.025 95.1214 210.695 94.5229 210.695 93.8346C210.695 92.5067 211.748 91.5021 213.123 91.3416C214.722 91.1545 215.381 92.1296 215.381 93.0739C215.381 93.7436 215.067 94.44 214.397 94.9064V94.9423C215.057 95.1468 215.642 95.7187 215.642 96.7227C215.642 98.1323 214.606 99.2151 213.018 99.4277C211.27 99.6606 210.461 98.6462 210.461 97.5831ZM214.019 97.0634C214.019 96.3797 213.577 96.0286 212.944 95.9162C212.416 96.1515 212.109 96.6236 212.109 97.1897C212.098 97.7569 212.479 98.2366 213.081 98.1572C213.65 98.0825 214.019 97.6149 214.019 97.0634ZM212.215 93.5895C212.215 94.1191 212.638 94.4041 213.187 94.5281C213.556 94.3624 213.882 93.9383 213.882 93.447C213.882 92.9673 213.64 92.5166 213.049 92.5872C212.5 92.6533 212.215 93.0965 212.215 93.5895Z" fill="#1166CB"/>
<path d="M181.356 105.094L181.169 105.662C181.169 105.662 180.659 106.583 180.482 107.18C180.305 107.778 180.422 108.229 180.991 108.513C181.559 108.798 181.976 108.14 182.344 107.573C182.567 107.228 182.509 106.577 182.414 106.055C182.347 105.689 182.509 104.918 182.509 104.918L181.356 105.094Z" fill="#FFC0AD"/>
<path d="M168.712 77.515C169.826 75.9467 173.402 76.8714 173.871 76.9977C177.313 77.9246 179.356 80.4709 182.301 84.2454C184.574 87.159 185.726 88.6114 186.328 90.937C187.271 94.5805 186.439 97.7415 186.022 99.3237C185.288 102.113 184.091 104.096 183.278 105.247C182.873 105.328 182.389 105.39 181.84 105.395C181.338 105.399 180.887 105.355 180.503 105.292C179.741 104.055 180.25 98.7626 179.872 97.3878C179.494 96.013 176.958 92.4844 176.082 91.2353C172.334 85.8879 169.99 84.3346 168.772 80.4564C168.252 78.8029 168.347 78.0283 168.712 77.515Z" fill="#1166CB"/>
<path d="M181.726 135.315C181.814 135.862 181.902 136.409 181.991 136.956C181.079 137.047 180.173 137.094 179.277 137.098L179.447 134.373C180.154 134.69 180.912 135.004 181.726 135.315Z" fill="#2C3854"/>
<path d="M181.547 135.643L181.737 135.313C181.737 135.313 182.078 135.109 182.24 135.532C182.401 135.954 183.317 138.165 183.366 139.167C183.126 139.767 182.445 139.258 182.305 138.851C182.165 138.443 181.679 136.931 181.679 136.931L181.547 135.643Z" fill="#2C3854"/>
<path d="M163.495 72.5039C163.493 72.9755 163.511 75.4992 164.633 75.9134C164.878 76.0038 165.075 75.9464 166.162 75.9748C166.782 75.9911 167.286 76.0241 167.611 76.049C167.556 76.4789 167.448 77.0559 167.217 77.7042C165.822 81.6305 161.305 84.3587 159.775 83.3761C158.978 82.8645 158.916 81.3292 158.891 80.6925C158.853 79.736 159.083 78.9776 159.252 78.5443C159.812 78.1376 160.385 77.7291 160.971 77.3213C161.354 77.0547 161.735 76.7935 162.114 76.5374C162.088 76.0542 162.063 75.5716 162.037 75.0884C162.523 74.2269 163.009 73.3654 163.495 72.5039Z" fill="#FFC0AD"/>
<path d="M163.981 73.4353C163.981 73.4353 163.986 75.5123 162.328 76.1878C160.843 76.7926 158.895 73.3067 159.482 72.1752C159.678 71.798 160.264 71.3548 160.831 71.2523C161.231 71.1804 162.887 71.1706 163.356 72.4718C163.496 72.0605 163.774 71.7934 164.061 71.7905C164.107 71.7899 164.238 71.809 164.343 71.8843C164.724 72.1555 164.615 72.7899 163.981 73.4353Z" fill="#FFC0AD"/>
<path d="M156.783 82.4887L159.272 82.4312C159.46 82.4405 159.685 82.2082 159.638 82.0494L158.475 77.3812C158.439 77.2578 158.314 77.1756 158.174 77.1831L155.421 77.1831C155.268 77.1924 155.184 77.4942 155.225 77.6437L156.511 82.2772C156.543 82.3919 156.659 82.4823 156.783 82.4887Z" fill="url(#paint3_linear_5822_44275)"/>
<path d="M156.908 82.4072H159.563C159.752 82.4159 159.883 82.2809 159.836 82.1221L158.548 77.3515C158.512 77.2275 158.386 77.1453 158.245 77.1539L155.522 77.154C155.368 77.1632 155.264 77.3115 155.306 77.4616L156.635 82.1963C156.667 82.311 156.783 82.4014 156.908 82.4072Z" fill="#0E5198"/>
<path d="M155.734 80.8503L155.488 80.0849C155.418 79.8688 155.51 79.6325 155.709 79.5235C155.985 79.3723 156.381 79.2379 156.681 79.4691C157.195 79.8636 156.326 81.9163 156.129 81.7581C155.931 81.6005 155.734 80.8503 155.734 80.8503Z" fill="#FFC0AD"/>
<circle cx="160.559" cy="66.364" r="2.70776" fill="#2C3854"/>
<defs>
<linearGradient id="paint0_linear_5822_44275" x1="135.731" y1="35.5131" x2="138.849" y2="41.2532" gradientUnits="userSpaceOnUse">
<stop stop-color="#FF9085"/>
<stop offset="1" stop-color="#FB6FBB"/>
</linearGradient>
<linearGradient id="paint1_linear_5822_44275" x1="146.305" y1="89.6427" x2="157.893" y2="89.6427" gradientUnits="userSpaceOnUse">
<stop stop-color="#FFC444"/>
<stop offset="0.9964" stop-color="#F36F56"/>
</linearGradient>
<linearGradient id="paint2_linear_5822_44275" x1="186.595" y1="105.16" x2="219.01" y2="72.3305" gradientUnits="userSpaceOnUse">
<stop stop-color="#444B8C"/>
<stop offset="0.9964" stop-color="#26264F"/>
</linearGradient>
<linearGradient id="paint3_linear_5822_44275" x1="159.926" y1="80.0234" x2="158.047" y2="82.1402" gradientUnits="userSpaceOnUse">
<stop stop-color="#444B8C"/>
<stop offset="0.9964" stop-color="#26264F"/>
</linearGradient>
</defs>
</svg>
