<svg width="225" height="157" viewBox="0 0 225 157" fill="none" xmlns="http://www.w3.org/2000/svg">
<path opacity="0.08" d="M196.67 155.696C196.67 155.696 213.239 159.633 221.402 141.778C231.985 118.604 217.135 96.5855 191.506 95.0086C154.55 92.7264 175.025 33.5282 116.707 49.5912C100.304 54.1065 64.6376 30.7955 43.6459 70.2969C40.0725 77.016 29.4009 76.683 15.1851 88.1426C-9.89751 108.359 -0.866201 155.921 20.2622 156.136C41.3906 156.342 196.67 155.696 196.67 155.696Z" fill="#8ABAEE"/>
<path d="M55.5777 44.1402C55.5777 44.1402 58.6152 38.414 54.063 36.2357C54.063 36.2357 50.8572 35.1625 48.5891 35.8192C48.5891 35.8192 53.0772 40.5523 52.1475 41.3291C51.2179 42.106 47.5232 35.6991 47.5232 35.6991C47.5232 35.6991 40.9593 36.524 39.124 37.9735C39.124 37.9735 45.6238 41.225 44.5258 41.7536C43.4278 42.2822 36.5113 39.2069 36.5113 39.2069C36.5113 39.2069 30.7649 41.5694 31.903 45.1412C33.041 48.7131 35.3572 49.3778 36.2388 49.0735C37.1204 48.7691 41.9611 45.5657 42.2416 46.2785C42.5222 46.9912 39.8854 50.1306 37.6734 50.7473C37.6734 50.7473 42.9309 54.4393 45.4314 52.4771C47.9319 50.507 47.6915 48.3287 49.2543 47.1434C50.8171 45.9581 52.3078 45.6218 51.7709 46.5988C51.2339 47.5759 48.2525 49.0735 47.6514 51.0596C47.0503 53.0458 46.4252 54.4393 49.2223 53.3501C52.0193 52.2609 56.2509 49.0895 55.9143 46.6148C55.5777 44.1402 55.5777 44.1402 55.5777 44.1402Z" fill="#1166CB"/>
<path d="M34.8473 44.589C34.8473 44.589 50.9404 40.3124 55.5647 44.1486C55.5647 44.1486 56.8951 46.3429 59.8204 47.9527L60.4375 48.9057C60.4375 48.9057 56.9592 46.5752 55.9093 46.6232C55.9093 46.6152 56.1898 40.5127 34.8473 44.589Z" fill="#8ABAEE"/>
<path d="M59.8186 47.9525C59.8186 47.9525 63.8819 49.7464 65.1562 54.2873L64.5391 54.4875C64.5391 54.4875 62.3592 49.9786 59.9228 48.5691C57.5024 47.1676 59.8186 47.9525 59.8186 47.9525Z" fill="#8ABAEE"/>
<path d="M75.5516 33.8178C75.5516 33.8178 84.5438 29.1328 80.6167 22.2934C80.6167 22.2934 77.435 18.0729 73.9326 16.9036C73.9326 16.9036 75.5195 26.9784 73.6281 27.1546C71.7367 27.3308 72.6663 15.8064 72.6663 15.8064C72.6663 15.8064 63.4818 11.0493 59.8191 11.2976C59.8191 11.2976 65.3091 21.2523 63.4257 20.956C61.5423 20.6677 55.3551 10.5768 55.3551 10.5768C55.3551 10.5768 45.8579 8.52661 44.1509 14.1326C42.4518 19.7467 44.8401 22.6458 46.2426 23.0382C47.6452 23.4306 56.7336 23.5828 56.4611 24.7601C56.1886 25.9293 50.0014 27.6352 46.6113 26.4739C46.6113 26.4739 50.1056 35.892 55.0746 35.5717C60.0436 35.2513 61.6625 32.2321 64.74 32.0879C67.8096 31.9438 70.0296 32.8327 68.4748 33.6176C66.92 34.4024 61.7426 33.6897 59.21 35.7158C56.6695 37.742 54.6258 38.9834 59.202 40.0645C63.7703 41.1457 72.0412 40.8013 73.8044 37.3176C75.5516 33.8178 75.5516 33.8178 75.5516 33.8178Z" fill="#1166CB"/>
<path d="M48.4597 16.0312C48.4597 16.0312 72.984 24.7847 75.5486 33.8184C75.5486 33.8184 75.3082 37.8227 77.6484 42.4917L77.5923 44.2616C77.5923 44.2616 75.18 38.1751 73.7855 37.3101C73.7935 37.3021 79.5639 29.6939 48.4597 16.0312Z" fill="#8ABAEE"/>
<path d="M77.6494 42.492C77.6494 42.492 81.296 48.4024 78.9077 55.3859L77.9299 55.0896C77.9299 55.0896 79.116 47.3452 77.2326 43.381C75.3573 39.4247 77.6494 42.492 77.6494 42.492Z" fill="#8ABAEE"/>
<path d="M114.409 123.184C144.765 123.184 169.373 98.5762 169.373 68.2205C169.373 37.8649 144.765 13.2568 114.409 13.2568C84.0534 13.2568 59.4453 37.8649 59.4453 68.2205C59.4453 98.5762 84.0534 123.184 114.409 123.184Z" fill="#1166CB"/>
<path d="M114.404 125.937C82.5789 125.937 56.6875 100.046 56.6875 68.2201C56.6875 36.3944 82.5795 10.5029 114.404 10.5029C146.228 10.5029 172.121 36.3944 172.121 68.2201C172.121 100.046 146.229 125.937 114.404 125.937ZM114.404 13.2563C84.0968 13.2563 59.4403 37.9129 59.4403 68.2201C59.4403 98.5273 84.0968 123.184 114.404 123.184C144.711 123.184 169.368 98.5273 169.368 68.2201C169.368 37.9129 144.711 13.2563 114.404 13.2563Z" fill="white"/>
<path d="M114.407 101.728C132.913 101.728 147.915 86.7255 147.915 68.2193C147.915 49.7132 132.913 34.7109 114.407 34.7109C95.9007 34.7109 80.8984 49.7132 80.8984 68.2193C80.8984 86.7255 95.9007 101.728 114.407 101.728Z" fill="#1166CB"/>
<path d="M114.402 104.481C94.4081 104.481 78.1406 88.2142 78.1406 68.2192C78.1406 48.2242 94.4075 31.958 114.402 31.958C134.397 31.958 150.664 48.2248 150.664 68.2192C150.664 88.2136 134.397 104.481 114.402 104.481ZM114.402 37.4636C97.4438 37.4636 83.6468 51.2606 83.6468 68.2192C83.6468 85.1778 97.4438 98.9754 114.402 98.9754C131.361 98.9754 145.158 85.1778 145.158 68.2192C145.158 51.2606 131.362 37.4636 114.402 37.4636Z" fill="white"/>
<path d="M114.404 81.2028C121.574 81.2028 127.386 75.3905 127.386 68.2206C127.386 61.0507 121.574 55.2383 114.404 55.2383C107.234 55.2383 101.422 61.0507 101.422 68.2206C101.422 75.3905 107.234 81.2028 114.404 81.2028Z" fill="#2C3854"/>
<path d="M114.399 83.9555C105.723 83.9555 98.6641 76.8967 98.6641 68.2204C98.6641 59.5442 105.723 52.4854 114.399 52.4854C123.075 52.4854 130.134 59.5442 130.134 68.2204C130.134 76.8967 123.076 83.9555 114.399 83.9555ZM114.399 57.9903C108.759 57.9903 104.17 62.5793 104.17 68.2198C104.17 73.8603 108.759 78.4493 114.399 78.4493C120.04 78.4493 124.629 73.8603 124.629 68.2198C124.629 62.5793 120.04 57.9903 114.399 57.9903Z" fill="white"/>
<path d="M175.85 6.93555L177.218 8.30296L125.438 60.0829L124.07 58.7154L175.85 6.93555Z" fill="#0E5198"/>
<path d="M125.039 55.4172C125.824 54.6325 129.522 58.3313 128.737 59.1154L115.02 69.8988C114.514 70.2974 113.857 69.6404 114.256 69.1339L125.039 55.4172Z" fill="#0E5198"/>
<path d="M177.192 8.33301L184.158 9.02541L174.596 18.5883C171.462 21.7218 167.089 23.284 162.68 22.8458L177.192 8.33301Z" fill="#8ABAEE"/>
<path d="M175.82 6.96593L175.127 0L165.564 9.56287C162.431 12.6963 160.869 17.0695 161.307 21.4787L175.82 6.96593Z" fill="#8ABAEE"/>
<path d="M63.6249 148.51C63.6249 148.51 63.2784 150.368 63.0998 152.209C63.0296 152.928 63.5794 153.559 64.3011 153.596C66.7542 153.722 72.0008 153.971 73.885 153.904C74.1685 153.894 74.3562 153.606 74.2537 153.342C74.1679 153.121 74.0001 152.94 73.7855 152.839L65.1536 148.772L63.6249 148.51Z" fill="#2C3854"/>
<path d="M63.3672 147.414L63.61 149.643C63.61 149.643 65.1219 150.365 66.1668 149.578L65.5613 147.091L63.3672 147.414Z" fill="#FFC0AD"/>
<path d="M63.9702 105.556C63.8503 106.136 63.0812 134.565 65.9988 147.336C66.0462 147.545 65.9389 147.758 65.7405 147.837C65.2723 148.023 64.3557 148.29 63.2604 148.316C62.9211 148.325 62.619 148.101 62.5267 147.774C61.6862 144.81 57.6643 129.958 57.2561 115.803C56.7999 99.9865 57.2615 115.265 57.2615 115.265L57.7105 105.495L63.9702 105.556Z" fill="#1166CB"/>
<path d="M53.6428 149.386C53.6428 149.386 53.1104 150.32 52.5799 152.813C52.484 153.263 52.7951 153.698 53.2525 153.747C54.0618 153.834 55.3081 153.949 56.3075 153.951C56.7679 153.953 57.1311 153.555 57.0802 153.097C56.9783 152.185 56.648 150.686 55.5935 149.51L53.6428 149.386Z" fill="#2C3854"/>
<path d="M53.2109 146.519L53.796 149.892C53.796 149.892 54.4021 150.352 55.6124 150.034L55.3523 146.408L53.2109 146.519Z" fill="#FFC0AD"/>
<path d="M51.9288 106.315C49.3001 121.293 52.1141 143.398 53.093 147.729C53.153 147.994 53.3646 148.199 53.6319 148.246C54.0863 148.325 54.8357 148.394 55.5772 148.186C55.8326 148.115 56.0137 147.887 56.0269 147.622C56.1971 144.13 56.1551 122.682 58.5525 114.228C58.6741 113.8 58.9397 113.428 59.3054 113.173L63.8314 110.02L64.2253 104.857L51.9288 106.315Z" fill="#1166CB"/>
<path d="M68.0406 78.0411C60.5921 77.8469 52.3529 79.8473 52.3529 79.8473C50.0089 92.7829 51.6982 107.745 51.6982 107.745C57.4508 109.312 63.9797 106.937 63.9797 106.937C64.9899 101.53 69.6076 86.3319 69.6076 86.3319C73.2519 85.9147 76.26 84.8932 78.7425 83.5287C76.8799 81.3275 76.0185 78.5411 75.6486 76.8955C73.0073 77.6892 70.3378 78.1011 68.0406 78.0411Z" fill="#8ABAEE"/>
<path d="M90.1486 67.2775C89.425 66.3866 88.4952 66.7961 88.4952 66.7961C87.355 71.4163 81.5713 75.1162 75.6484 76.8949C76.0183 78.5405 76.8798 81.3274 78.7423 83.5281C88.5948 78.1118 90.1486 67.2775 90.1486 67.2775Z" fill="#FFC0AD"/>
<path d="M89.9723 67.5007C90.0466 67.7447 89.1564 68.1074 88.6438 67.1063C88.6301 66.6291 88.3597 64.5819 88.648 64.1958C90.1863 62.1402 93.1549 59.5732 93.1549 59.5732C93.6477 60.069 93.2334 60.5474 93.2334 60.5474L91.7911 62.0215C92.0849 62.564 92.4445 63.0232 92.6094 63.6779C92.7341 64.1736 92.6496 64.7012 92.396 65.149C92.1412 65.598 91.7935 66.1819 91.4656 66.6387C90.8451 67.5025 89.9723 67.5007 89.9723 67.5007Z" fill="#FFC0AD"/>
<path d="M91.1532 62.9814L89.8409 64.0725L89.4219 65.1671L90.5699 66.4656C90.5699 66.4656 90.9811 64.2895 91.2755 63.8207C91.5698 63.3513 91.4217 63.1217 91.1532 62.9814Z" fill="#FFC0AD"/>
<path d="M55.1417 87.0862L52.3535 79.8457C52.3535 79.8457 45.3504 84.5072 44.1484 90.4906C45.4625 90.5997 47.8514 90.9648 50.1816 92.1698C50.7235 89.3438 55.1417 87.0862 55.1417 87.0862Z" fill="#8ABAEE"/>
<path d="M61.1523 93.9322C61.1523 93.9322 53.298 98.273 50.6981 94.4777C50.1585 93.6894 50.035 92.9107 50.1765 92.1703C47.8463 90.9654 45.4568 90.6009 44.1434 90.4912C43.7813 92.295 43.9449 94.2188 44.9886 96.1713C49.5255 104.662 62.1679 95.8685 62.1679 95.8685L61.1523 93.9322Z" fill="#FFC0AD"/>
<path d="M60.5517 71.9199L58.116 78.7522C58.0759 78.8655 58.1214 78.9914 58.2257 79.0508C58.8684 79.414 61.1866 80.4691 64.0089 78.7168C64.3027 78.5346 64.5047 78.2343 64.5526 77.8914L65.3769 71.9661L60.5517 71.9199Z" fill="#FFC0AD"/>
<path d="M65.7722 65.6221C65.7722 65.6221 68.3284 70.5462 67.9759 72.5226C67.6234 74.4985 64.3988 74.3259 61.5974 72.6917L59.6797 67.3827L65.7722 65.6221Z" fill="#FFC0AD"/>
<path d="M61.8291 69.7996C61.8962 69.9052 61.8531 70.0448 61.738 70.0946L61.3711 70.2529C61.2746 70.2948 61.2254 70.4033 61.259 70.5034L61.976 72.655C62.0227 72.7958 61.907 72.9403 61.7596 72.9217C60.0571 72.7077 59.2661 72.1775 58.344 70.9419C56.1655 68.0231 60.7539 64.6004 63.231 62.9985C65.342 61.6334 67.2324 64.558 66.993 65.1891C66.4595 66.596 63.9794 67.1889 62.3171 67.5702C60.6541 67.9515 61.1193 68.2554 61.1193 68.2554C61.2386 68.8255 61.6235 69.4789 61.8291 69.7996Z" fill="#2C3854"/>
<path d="M62.0419 70.4016C62.0419 70.4016 60.2009 69.1128 60.0552 70.1822C59.9095 71.2517 61.7092 71.7493 62.6066 71.3584L62.0419 70.4016Z" fill="#FFC0AD"/>
<path d="M59.5561 100.792L63.8345 85.8504C63.8831 85.6808 64.0276 85.5573 64.2032 85.5369C64.9783 85.4464 67.2246 85.1928 69.8185 84.9734C72.9424 84.709 76.5704 84.495 78.7382 84.6772C79.0463 84.703 79.2327 85.0291 79.0954 85.3061C77.8629 87.7999 72.7919 97.9455 70.2525 101.269C70.1686 101.379 70.0385 101.443 69.8995 101.442L59.9721 101.35C59.6838 101.347 59.4769 101.07 59.5561 100.792Z" fill="#2C3854"/>
<path d="M60.5845 97.1826C60.5845 97.1826 59.9886 94.7319 60.229 93.8621C60.4694 92.9928 60.9352 91.8748 62.4878 92.123C64.0405 92.3712 65.8719 93.0252 65.8719 93.0252C65.8719 93.0252 65.7796 94.1576 64.5992 93.7926L65.3312 94.3591C65.3312 94.3591 65.2263 95.2661 64.2299 94.7817L64.9103 95.5328C64.9103 95.5328 64.4823 96.2774 63.7491 95.8002C63.0154 95.3218 62.6641 97.4775 60.5845 97.1826Z" fill="#FFC0AD"/>
<path d="M69.5312 89.4327C69.5312 90.1263 70.0936 90.6886 70.7872 90.6886C71.4808 90.6886 72.0431 90.1263 72.0431 89.4327C72.0431 88.7391 71.4808 88.1768 70.7872 88.1768C70.0936 88.1768 69.5312 88.7391 69.5312 89.4327Z" fill="#91B3FA"/>
<path d="M164.754 126.93H162.703V149.108H164.754V126.93Z" fill="#0E5198"/>
<path d="M172.712 149.534H154.75V148.347C154.75 148.265 154.817 148.199 154.898 148.199H172.564C172.646 148.199 172.712 148.266 172.712 148.347V149.534H172.712Z" fill="#0E5198"/>
<path d="M176.103 126.112C176.103 127.4 175.048 128.455 173.759 128.455H154.446C153.157 128.455 152.102 127.401 152.102 126.112V123.992C152.102 122.704 153.156 121.648 154.446 121.648H173.759C175.048 121.648 176.103 122.703 176.103 123.992V126.112Z" fill="#0E5198"/>
<path d="M145.547 142.373C145.547 142.373 138.917 145.229 139.297 148.217C139.297 148.217 146.15 146.903 147.377 144.944C148.603 142.985 147.928 141.851 147.928 141.851L145.547 142.373Z" fill="#0E5198"/>
<path d="M147.166 139.108L147.502 142.018C147.553 142.457 147.309 142.891 146.893 143.04C146.685 143.115 146.412 143.167 146.053 143.169C145.547 143.171 145.1 142.839 144.965 142.351L144.312 139.997L147.166 139.108Z" fill="#FFC0AD"/>
<path d="M161.655 116.796C161.655 116.796 149.461 116.232 143.393 119.77C137.325 123.308 143.7 140.292 143.7 140.292C143.7 140.292 145.285 140.632 147.568 139.413C147.568 139.413 144.311 126.98 149.968 124.817C156.328 122.386 162.908 122.977 162.908 122.977L161.689 117.179L161.655 116.796Z" fill="#0E5198"/>
<path d="M140.635 146.905C142.021 146.601 146.133 144.897 146.758 144.92C147.382 144.943 148.267 145.879 148.267 145.879C148.267 145.879 148.419 146.39 147.973 147.124C146.913 147.951 144.631 149.467 141.977 149.633C140.025 149.756 138.851 148.979 138.18 148.226C138.768 147.654 139.711 147.107 140.635 146.905Z" fill="#1166CB"/>
<path d="M141.968 149.634C144.622 149.468 146.904 147.951 147.964 147.125C147.662 147.621 147.087 148.219 146.006 148.83C143.325 150.345 138.893 150.124 138.014 149.783C137.311 149.51 137.528 148.852 138.171 148.226C138.843 148.979 140.017 149.756 141.968 149.634Z" fill="#1166CB"/>
<path d="M149.714 144.356C149.624 144.7 148.652 145.731 148.091 146.306C147.824 146.58 147.437 146.696 147.063 146.616C146.826 146.564 146.559 146.483 146.328 146.358C145.981 146.17 145.861 145.728 146.051 145.382L147.471 142.8L149.714 144.356Z" fill="#FFC0AD"/>
<path d="M173.74 115.772C173.74 115.772 174.805 123.324 171.727 124.867C168.649 126.411 161.899 127.421 159.574 131.338C157.249 135.254 153.073 142.942 149.273 145.15C149.273 145.15 147.103 144.445 146.469 143.377C146.469 143.377 150.979 131.52 152.861 128.637C154.49 126.141 156.873 122.545 160.259 120.99C161.228 120.545 161.304 119.517 161.134 118.464L160.823 116.547L173.74 115.772Z" fill="#1166CB"/>
<path d="M145.216 107.212C149.531 108.443 151.462 96.2998 151.444 96.0049L158.06 103.74C158.06 103.74 154.118 110.676 148.166 111.414C146.66 111.601 145.379 111.341 144.305 110.849C145.097 109.551 145.277 108.271 145.216 107.212Z" fill="#8ABAEE"/>
<path d="M137.221 103.237C139.102 102.465 140.697 104.006 140.697 104.006C142.56 105.914 144.038 106.877 145.212 107.212C145.273 108.271 145.092 109.552 144.3 110.848C141.976 109.783 140.62 107.63 140.062 106.555C139.861 106.169 139.39 106.005 138.997 106.194C138.599 106.388 138.188 106.681 138.162 107.08C138.111 107.868 137.174 107.914 137.169 107.624C137.164 107.333 137.895 105.777 137.895 105.777C137.895 105.777 135.734 107.163 134.893 107.693C134.052 108.223 133.336 107.348 133.336 107.348C133.336 107.348 135.341 104.01 137.221 103.237Z" fill="#FFC0AD"/>
<path d="M172.069 91.0089C172.069 91.0089 166.271 87.053 152.267 94.2071C152.267 94.2071 150.825 96.0355 151.5 98.0959C152.176 100.157 160.491 111.311 160.814 116.547C160.814 116.547 166.498 119.892 173.876 116.575C173.876 116.576 176.35 102.75 172.069 91.0089Z" fill="#8ABAEE"/>
<path d="M160.004 85.9512L162.296 90.4413C162.523 90.8873 162.475 91.4268 162.163 91.8177C161.532 92.6084 160.215 93.6707 157.967 92.9861C157.298 92.7823 156.786 92.2385 156.625 91.5581L155.438 86.5465L160.004 85.9512Z" fill="#FFC0AD"/>
<path d="M176.367 106.688C176.759 103.958 169.547 98.6683 169.547 98.6683L172.073 91.0088C172.073 91.0088 185.836 100.831 182.942 108.851C182.527 110.001 181.908 110.838 181.153 111.432C179.695 108.443 177.718 107.201 176.367 106.688Z" fill="#8ABAEE"/>
<path d="M166.312 107.445C166.312 107.445 174.471 109.724 176.163 107.24C176.278 107.072 176.345 106.886 176.374 106.688C177.726 107.201 179.703 108.443 181.16 111.432C177.286 114.479 169.818 111.064 167.788 110.04C167.454 109.871 167.071 109.838 166.713 109.95C165.992 110.175 164.741 110.525 164.044 110.486C163.024 110.431 161.93 114.114 160.195 113.182C160.195 113.182 160.984 106.888 166.312 107.445Z" fill="#FFC0AD"/>
<path d="M157.062 78.6141C156.989 78.677 153.967 83.956 152.428 86.6471C151.958 87.4684 152.31 88.5145 153.18 88.8873L153.846 89.1727C154.757 89.563 156.716 89.8897 157.486 89.2674L162.345 84.1383C162.346 84.1389 158.696 77.1993 157.062 78.6141Z" fill="#FFC0AD"/>
<path d="M164.471 80.526C165.028 81.7256 164.312 82.4036 163.716 82.7381C163.417 82.9065 163.316 83.2854 163.494 83.5773C164.341 84.9825 163.307 85.7253 162.796 85.9896C162.651 86.0646 162.484 86.0766 162.33 86.0238C161.86 85.8625 160.718 85.5586 160.077 86.1467C159.986 86.23 159.87 86.3493 159.737 86.4926C159.382 85.9465 159.022 85.4064 158.616 84.895L160.093 82.6506C160.193 82.4989 160.22 82.31 160.164 82.1368C159.986 81.5901 159.495 80.4289 158.488 80.258C157.164 80.0332 155.09 78.9332 155.571 77.5196C156.052 76.106 157.781 74.4797 159.631 75.5995L164.471 80.526Z" fill="#2C3854"/>
<path d="M159.195 87.4535C159.195 87.4535 160.139 85.0262 161.213 85.1617C162.287 85.2972 163.09 86.4056 161.704 87.5566C159.981 88.9876 159.195 87.4535 159.195 87.4535Z" fill="#FFC0AD"/>
<path d="M155.894 112.639C155.88 112.639 155.865 112.64 155.85 112.64L136.79 112.619C136.319 112.618 135.938 112.236 135.938 111.765C135.938 111.294 136.322 110.904 136.792 110.912L155.852 110.933C156.323 110.934 156.705 111.316 156.705 111.787C156.704 112.244 156.345 112.616 155.894 112.639Z" fill="#2C3854"/>
<path d="M119.652 95.334H135.525C136.696 95.334 137.762 96.0096 138.262 97.0689L145.6 112.629H125.874C125.119 112.629 124.441 112.168 124.164 111.466L118.473 97.0677C118.144 96.2356 118.757 95.334 119.652 95.334Z" fill="#2C3854"/>
<path d="M130.839 103.313C131.183 104.382 130.929 105.419 130.272 105.631C129.614 105.842 128.802 105.148 128.458 104.079C128.114 103.01 128.368 101.972 129.026 101.761C129.683 101.549 130.496 102.244 130.839 103.313Z" fill="#1166CB"/>
<path d="M122.23 153.52C122.125 153.52 122.017 153.5 121.914 153.457C121.508 153.288 121.32 152.831 121.495 152.438L138.293 114.632C138.468 114.239 138.939 114.057 139.345 114.226C139.752 114.395 139.939 114.852 139.764 115.245L122.966 153.051C122.836 153.344 122.541 153.52 122.23 153.52Z" fill="#1166CB"/>
<path d="M141.146 153.52C140.836 153.52 140.54 153.345 140.41 153.051L123.612 115.245C123.437 114.852 123.626 114.395 124.031 114.226C124.437 114.057 124.909 114.239 125.083 114.632L141.881 152.438C142.056 152.831 141.868 153.288 141.462 153.457C141.359 153.5 141.252 153.52 141.146 153.52Z" fill="#1166CB"/>
<path d="M174.222 153.52C174.117 153.52 174.01 153.5 173.906 153.457C173.5 153.288 173.312 152.831 173.487 152.438L190.285 114.632C190.46 114.239 190.931 114.057 191.337 114.226C191.744 114.395 191.932 114.852 191.756 115.245L174.959 153.051C174.828 153.344 174.533 153.52 174.222 153.52Z" fill="#1166CB"/>
<path d="M193.146 153.52C192.836 153.52 192.541 153.345 192.41 153.051L175.612 115.245C175.437 114.852 175.626 114.395 176.031 114.226C176.437 114.057 176.909 114.239 177.083 114.632L193.881 152.438C194.056 152.831 193.868 153.288 193.462 153.457C193.359 153.5 193.252 153.52 193.146 153.52Z" fill="#1166CB"/>
<path d="M195.117 113.465C195.16 113.217 195.102 112.961 194.958 112.767C194.815 112.572 194.601 112.459 194.376 112.459H117.956C117.659 112.459 117.382 112.628 117.223 112.908C117.063 113.188 117.042 113.539 117.166 113.841L117.994 115.847C118.183 116.307 118.595 116.601 119.047 116.601H193.851C194.271 116.601 194.633 116.267 194.713 115.805L195.117 113.465Z" fill="#1166CB"/>
<path d="M14.8306 155.661H30.0905C30.9127 154.967 29.5228 153.392 28.0839 153.284C27.4575 153.235 26.6646 153.372 25.7543 153.558C25.5488 150.77 24.3448 138.241 19.8226 138.749C14.7425 139.317 19.8226 144.266 21.2615 147.2C22.3284 149.372 23.4443 152.492 23.963 153.959C23.5519 154.047 23.1213 154.135 22.6906 154.213C22.0152 152.15 19.5094 145.195 16.3282 145.606C12.5891 146.076 14.0867 148.863 16.7393 150.526C18.6872 151.739 21.0755 153.47 22.2109 154.311C21.2517 154.468 20.2435 154.575 19.2255 154.546C16.6022 154.478 15.3298 155.25 14.8306 155.661Z" fill="#1166CB"/>
</svg>
