<svg width="251" height="128" viewBox="0 0 251 128" fill="none" xmlns="http://www.w3.org/2000/svg">
<path opacity="0.08" d="M219.336 126.758C219.336 126.758 237.814 131.134 246.917 111.288C258.721 85.5314 242.159 61.059 213.576 59.3063C172.362 56.7698 195.196 -9.02712 130.157 8.82644C111.864 13.845 72.0869 -12.0644 48.676 31.8401C44.6907 39.3081 32.7892 38.938 16.9351 51.675C-11.0382 74.1443 -0.966028 127.008 22.5973 127.248C46.1607 127.476 219.336 126.758 219.336 126.758Z" fill="#8ABAEE"/>
<path d="M151.723 46.3943C151.723 46.3943 160.636 54.095 166.339 46.914C166.339 46.914 169.539 41.6702 169.295 37.3865C169.295 37.3865 159.092 43.4187 158.093 41.4571C157.093 39.4956 169.939 35.547 169.939 35.547C169.939 35.547 171.138 23.5857 169.314 19.7473C169.314 19.7473 160.92 29.9433 160.429 27.7842C159.938 25.6251 168.188 14.6195 168.188 14.6195C168.188 14.6195 166.331 3.48322 159.543 4.05184C152.755 4.62045 150.639 8.45393 150.821 10.1389C151.003 11.8238 154.716 21.6966 153.339 21.9047C151.963 22.1127 147.471 16.17 147.274 12.0018C147.274 12.0018 138.604 19.8188 141.067 25.0432C143.543 30.2709 147.499 30.7276 148.966 33.9762C150.432 37.2248 150.424 40.0017 148.911 38.6546C147.398 37.3076 145.953 31.4196 142.678 29.5501C139.403 27.6805 137.188 26.0086 137.984 31.4045C138.78 36.8005 142.683 45.5813 147.203 45.9878C151.723 46.3943 151.723 46.3943 151.723 46.3943Z" fill="#1166CB"/>
<path d="M159.313 9.50252C159.313 9.50252 160.368 39.7422 151.699 46.3792C151.699 46.3792 147.273 47.8467 143.236 52.3762L141.298 53.0832C141.298 53.0832 146.835 47.8662 147.176 45.987C147.19 45.9902 157.886 48.9598 159.313 9.50252Z" fill="#8ABAEE"/>
<path d="M143.244 52.3723C143.244 52.3723 138.419 58.8431 129.859 59.2604L129.755 58.0861C129.755 58.0861 138.625 56.0516 142.109 52.307C145.572 48.5874 143.244 52.3723 143.244 52.3723Z" fill="#8ABAEE"/>
<path d="M164.285 104.132C164.285 104.132 176.7 117.746 186.885 107.665C186.885 107.665 192.818 100.112 193.242 93.4158C193.242 93.4158 176.284 100.892 175.094 97.6519C173.904 94.4116 194.579 90.6809 194.579 90.6809C194.579 90.6809 198.661 72.334 196.52 66.0162C196.52 66.0162 181.59 80.2924 181.233 76.8463C180.863 73.4039 195.708 57.8395 195.708 57.8395C195.708 57.8395 194.889 40.2035 184.248 39.8141C173.596 39.4426 169.615 44.987 169.579 47.6332C169.542 50.2794 173.505 66.3141 171.31 66.3834C169.129 66.449 163.253 56.3751 163.715 49.8799C163.715 49.8799 148.799 60.401 151.674 68.98C154.549 77.559 160.606 78.9974 162.292 84.336C163.974 89.6606 163.445 93.9738 161.343 91.6081C159.241 89.2423 158.083 79.8165 153.346 76.3111C148.604 72.7915 145.472 69.7795 145.703 78.321C145.93 86.8483 150.385 101.216 157.325 102.692C164.285 104.132 164.285 104.132 164.285 104.132Z" fill="#1166CB"/>
<path d="M182.899 48.2678C182.899 48.2678 178.938 95.419 164.264 104.128C164.264 104.128 157.118 105.57 150.006 111.853L146.871 112.579C146.871 112.579 156.44 105.508 157.31 102.656C157.328 102.667 173.377 109.262 182.899 48.2678Z" fill="#8ABAEE"/>
<path d="M150.007 111.854C150.007 111.854 141.322 121.01 127.944 120.065L128.009 118.21C128.009 118.21 142.164 116.689 148.251 111.535C154.328 106.4 150.007 111.854 150.007 111.854Z" fill="#8ABAEE"/>
<path d="M82.1932 120.29L134.415 116.684C134.478 116.678 134.541 116.678 134.604 116.684L165.704 118.093C166.448 118.16 166.414 120.108 165.57 120.215L116.704 126.758C116.504 126.783 116.301 126.782 116.102 126.756L82.2896 122.005C81.8385 121.926 81.6737 120.328 82.1932 120.29Z" fill="#1166CB"/>
<path d="M82.2939 120.233L134.412 115.315C134.475 115.309 134.539 115.309 134.601 115.315L165.551 118.032C166.119 118.082 166.133 118.907 165.567 118.977L116.701 125.008C116.501 125.032 116.299 125.032 116.099 125.006L82.287 120.636C82.0473 120.605 82.0533 120.256 82.2939 120.233Z" fill="#1166CB"/>
<path d="M117.218 124.418C117.146 124.418 117.073 124.413 117.001 124.404L86.6966 120.487C86.586 120.473 86.589 120.312 86.6996 120.302L133.236 115.919C133.247 115.918 133.257 115.918 133.267 115.918C133.277 115.918 133.286 115.918 133.296 115.919L162.88 118.516C163.017 118.529 163.02 118.728 162.883 118.745L117.425 124.405C117.357 124.413 117.288 124.418 117.218 124.418Z" fill="#8ABAEE"/>
<path d="M99.9762 122.535C99.965 122.625 99.6801 122.665 99.3396 122.624C98.9991 122.582 98.7319 122.476 98.7426 122.385C98.7538 122.295 99.0388 122.255 99.3792 122.297C99.7201 122.338 99.9874 122.445 99.9762 122.535Z" fill="url(#paint0_linear_5822_44334)"/>
<path d="M124.618 125.324L119.927 125.941C119.585 125.986 119.304 125.818 119.304 125.566C119.304 125.314 119.585 125.077 119.927 125.037L124.618 124.489C124.908 124.455 125.141 124.613 125.141 124.842C125.141 125.07 124.908 125.287 124.618 125.324Z" fill="#1166CB"/>
<path d="M129.754 124.65L125.891 125.158C125.61 125.194 125.381 125.04 125.381 124.812C125.381 124.584 125.61 124.373 125.891 124.34L129.754 123.889C129.994 123.861 130.188 124.008 130.188 124.216C130.188 124.424 129.994 124.619 129.754 124.65Z" fill="#1166CB"/>
<path d="M136.213 123.799L133.274 124.185C133.063 124.213 132.891 124.076 132.891 123.878C132.891 123.681 133.063 123.5 133.274 123.476L136.213 123.132C136.398 123.111 136.547 123.242 136.547 123.424C136.547 123.607 136.398 123.775 136.213 123.799Z" fill="#1166CB"/>
<path opacity="0.6" d="M141.659 118.349C137.117 119.158 134.101 120.804 127.584 120.936C121.938 121.05 121.897 119.749 115.335 119.338C106.739 118.8 104.498 120.888 95.7062 120.708C93.4137 120.661 90.4128 120.454 86.8622 119.802L82.294 120.234C82.0534 120.256 82.0474 120.605 82.2871 120.636L116.099 125.006C116.299 125.032 116.501 125.032 116.701 125.008L158.062 119.904C150.966 117.537 145.531 117.66 141.659 118.349Z" fill="white"/>
<path d="M130.917 120.738C133.337 120.738 136.938 120.32 136.938 119.166C136.938 118.013 133.337 117.594 130.917 117.594C128.497 117.594 124.897 118.013 124.897 119.166C124.897 120.32 128.497 120.738 130.917 120.738ZM130.917 118.053C134.568 118.053 136.478 118.777 136.478 119.166C136.478 119.554 134.568 120.279 130.917 120.279C127.266 120.279 125.356 119.554 125.356 119.166C125.356 118.777 127.266 118.053 130.917 118.053Z" fill="white"/>
<path opacity="0.6" d="M130.923 119.777C129.469 119.777 128.291 119.504 128.291 119.167C128.291 118.83 129.469 118.557 130.923 118.557C132.376 118.557 133.555 118.83 133.555 119.167C133.555 119.504 132.376 119.777 130.923 119.777Z" fill="white"/>
<mask id="mask0_5822_44334" style="mask-type:alpha" maskUnits="userSpaceOnUse" x="93" y="54" width="71" height="67">
<path d="M93.7676 65.29L124.911 116.211L125.196 116.676L125.574 117.294L126.236 118.377L126.717 119.163C126.717 119.686 128.487 120.112 130.712 120.138C130.784 120.14 130.855 120.14 130.928 120.14C133.255 120.14 135.14 119.703 135.14 119.163L135.58 118.363L136.463 116.763L136.764 116.217L137.142 115.532L138.995 112.169L142.188 106.379L145.785 99.8534L146.144 99.2014L150.119 91.9899L152.645 87.4072L163.828 67.1193C161.24 65.1363 155.199 60.8432 146.394 57.8896C145.086 57.4501 143.717 57.0408 142.288 56.6732C141.958 56.5875 141.625 56.5045 141.287 56.424C141.034 56.3637 140.78 56.3043 140.524 56.2479C140.323 56.2014 140.119 56.1571 139.915 56.1132C139.913 56.1132 139.913 56.1132 139.912 56.1132C136.866 55.4611 133.581 55.0091 130.074 54.8606C129.652 54.8417 129.227 54.8279 128.798 54.8189C122.102 54.6777 116.138 55.6802 111.068 57.148C110.897 57.1957 110.727 57.2461 110.559 57.2965C110.51 57.3115 110.461 57.3253 110.414 57.3404C109.873 57.5026 109.344 57.6714 108.825 57.844C107.406 58.3148 106.068 58.8172 104.814 59.3332C99.5237 61.5104 95.735 63.938 93.7676 65.29Z" fill="url(#paint1_linear_5822_44334)"/>
</mask>
<g mask="url(#mask0_5822_44334)">
<path opacity="0.56" d="M93.7486 65.2929L124.892 116.214L125.177 116.679L125.555 117.297L126.217 118.38L126.698 119.165C126.698 119.689 128.468 120.115 130.693 120.141C130.765 120.143 130.836 120.143 130.909 120.143C133.236 120.143 135.121 119.706 135.121 119.165L135.561 118.366L136.444 116.766L136.745 116.22L137.123 115.535L138.976 112.172L142.169 106.382L145.766 99.8564L146.125 99.2043L150.1 91.9929L152.626 87.4101L164.562 63.1311C161.974 61.1482 155.18 60.8461 146.375 57.8925C145.067 57.453 143.698 57.0437 142.269 56.6761C141.939 56.5905 141.606 56.5074 141.268 56.4269C141.015 56.3666 140.761 56.3072 140.505 56.2509C140.304 56.2044 140.1 56.16 139.896 56.1161H139.893C136.847 55.464 133.562 55.0121 130.055 54.8636C129.633 54.8446 129.208 54.8309 128.779 54.8218C122.083 54.6806 116.119 55.6831 111.049 57.1509C110.878 57.1987 110.708 57.249 110.54 57.2994C110.491 57.3144 110.442 57.3282 110.395 57.3433C109.854 57.5056 109.325 57.6743 108.806 57.8469C107.387 58.3178 106.049 58.8201 104.795 59.3362C99.5047 61.5133 95.7161 63.9409 93.7486 65.2929Z" fill="white"/>
</g>
<path d="M74.4119 47.0366L77.474 46.4672C77.3052 44.4059 77.427 42.3734 77.808 40.4145L74.9383 39.3995C74.1541 39.1223 73.7383 38.2425 74.0086 37.4325L74.7291 35.2726C75.0007 34.4578 75.8607 34.0162 76.6518 34.2873L79.4802 35.2579C80.3565 33.3675 81.4942 31.5984 82.8595 30.0037L80.9152 27.7543C80.3574 27.1091 80.4284 26.1083 81.0754 25.5169L82.804 23.9355C83.4574 23.3376 84.4474 23.3764 85.0138 24.0246L86.9563 26.2473C88.6841 25.0103 90.6102 23.9897 92.7038 23.2438L92.1473 20.2799C91.9833 19.4057 92.5631 18.5289 93.4455 18.321L95.8072 17.7649C96.7008 17.5544 97.5625 18.1002 97.7283 18.9838L98.2908 21.9805C100.55 21.7481 102.788 21.8458 104.949 22.2409L106.03 19.2335C106.348 18.3498 107.328 17.8462 108.221 18.1109L110.609 18.819C111.512 19.0867 111.981 20.0281 111.656 20.919L110.528 24.0001C112.571 24.9362 114.469 26.16 116.16 27.6342L118.823 25.3886C119.578 24.752 120.709 24.7964 121.348 25.4906L123.052 27.3428C123.695 28.0418 123.594 29.1239 122.828 29.7575L120.065 32.0426C121.29 33.8513 122.264 35.8537 122.929 38.0136L126.629 37.3253C127.625 37.1402 128.576 37.7428 128.751 38.6717L129.215 41.1423C129.389 42.0712 128.719 42.9665 127.721 43.1408L123.915 43.8063C123.999 46.0217 123.751 48.1928 123.209 50.2666L126.918 51.5394C127.863 51.8639 128.351 52.8401 128.004 53.7178L127.084 56.0434C126.739 56.915 125.699 57.351 124.762 57.0196L121.003 55.69C119.949 57.546 118.638 59.2496 117.11 60.7493L119.687 63.6977C120.315 64.4165 120.218 65.4599 119.471 66.0255L117.497 67.5208C116.759 68.0799 115.66 67.9512 115.042 67.2363L112.479 64.2706C110.692 65.3049 108.747 66.1137 106.678 66.6552L107.375 70.3668C107.541 71.2509 106.934 72.0614 106.023 72.1763L103.614 72.481C102.714 72.5947 101.853 71.9783 101.689 71.1037L101 67.4321C98.9003 67.4661 96.8506 67.2208 94.8934 66.7309L93.6628 70.0935C93.3689 70.8966 92.4581 71.2784 91.6304 70.9479L89.4408 70.0737C88.6221 69.7465 88.1921 68.8366 88.4788 68.0386L89.6663 64.7368C87.8714 63.7937 86.2117 62.6242 84.7314 61.2641L82.1222 63.4218C81.4817 63.9517 80.5175 63.8389 79.9679 63.1721L78.5104 61.4052C77.9638 60.7428 78.0327 59.7756 78.665 59.2428L81.1817 57.1212C80.0832 55.4756 79.1922 53.6713 78.5505 51.7387L75.3997 52.2896C74.5875 52.4316 73.8041 51.8699 73.6474 51.0358L73.2308 48.8169C73.0732 47.9857 73.6014 47.1873 74.4119 47.0366ZM102.622 60.6503C111.742 59.2858 118.002 50.8335 116.309 41.8155C114.616 32.7976 105.699 27.094 96.6827 29.015C87.973 30.8706 82.4161 39.1959 84.0066 47.6668C85.5966 56.1372 93.8113 61.9682 102.622 60.6503Z" fill="#97A6B7"/>
<path d="M105.208 18.556L107.373 18.0713L108.492 19.8851L105.208 18.556Z" fill="#97A6B7"/>
<path d="M83.7656 23.5176L81.2567 24.0143L81.6049 25.8686L83.7656 23.5176Z" fill="#97A6B7"/>
<path d="M75.8594 34.2607L73.3728 34.8328L74.2625 36.118L75.8594 34.2607Z" fill="#97A6B7"/>
<path d="M74.2031 47.1035L71.7096 47.7789L72.7672 48.8515L74.2031 47.1035Z" fill="#97A6B7"/>
<path d="M81.6719 63.6783L79.2821 64.4901L78.6051 62.542L81.6719 63.6783Z" fill="#97A6B7"/>
<path d="M92.7734 70.9605L90.6437 71.7753L90.1625 70.1797L92.7734 70.9605Z" fill="#97A6B7"/>
<path d="M104.524 72.7996L106.438 72.0769L104.259 69.8662L104.524 72.7996Z" fill="#97A6B7"/>
<path d="M114.854 68.6566L117.07 67.7479L114.887 65.9268L114.854 68.6566Z" fill="#97A6B7"/>
<path d="M120.047 24.9277L117.655 25.4546L118.937 27.0295L120.047 24.9277Z" fill="#97A6B7"/>
<path d="M128.391 42.9003L126.247 43.6398L126.083 41.8027L128.391 42.9003Z" fill="#97A6B7"/>
<path d="M126.125 56.9936L124.036 57.749L123.592 56.3535L126.125 56.9936Z" fill="#97A6B7"/>
<path d="M71.9807 47.7003L75.0681 47.1261C74.8981 45.048 75.0208 42.9991 75.4051 41.0239L72.5118 40.0008C71.7211 39.721 71.3019 38.8343 71.5743 38.0178L72.3009 35.8402C72.5746 35.019 73.442 34.5735 74.2395 34.8472L77.0911 35.8256C77.9748 33.9201 79.1219 32.136 80.4988 30.5283L78.5387 28.2608C77.9761 27.61 78.048 26.6015 78.7001 26.0054L80.4429 24.411C81.1019 23.8084 82.0996 23.8476 82.6708 24.501L84.6292 26.7418C86.3712 25.4944 88.3133 24.4657 90.4245 23.7133L89.8637 20.7253C89.698 19.8438 90.2829 18.9601 91.1726 18.7505L93.5538 18.19C94.4551 17.9778 95.3233 18.5279 95.4907 19.4189L96.058 22.4397C98.3358 22.2055 100.593 22.3037 102.771 22.7022L103.862 19.6703C104.182 18.7793 105.17 18.2718 106.071 18.5387L108.478 19.2528C109.389 19.5227 109.862 20.4717 109.534 21.3696L108.397 24.4756C110.457 25.4195 112.371 26.6531 114.075 28.139L116.761 25.8749C117.522 25.2332 118.662 25.2775 119.306 25.9774L121.025 27.8446C121.673 28.5492 121.571 29.6403 120.799 30.2791L118.013 32.5832C119.248 34.4065 120.23 36.4252 120.901 38.6027L124.631 37.9089C125.635 37.7221 126.594 38.3294 126.77 39.266L127.238 41.7569C127.413 42.6935 126.738 43.5957 125.732 43.7718L121.894 44.4428C121.979 46.6763 121.729 48.865 121.182 50.9556L124.921 52.2387C125.875 52.5659 126.366 53.5503 126.016 54.4348L125.089 56.7793C124.741 57.6579 123.692 58.0978 122.747 57.7637L118.957 56.4234C117.895 58.2949 116.573 60.0119 115.032 61.524L117.63 64.4961C118.263 65.2205 118.166 66.2725 117.413 66.8428L115.422 68.3502C114.678 68.914 113.57 68.7845 112.947 68.0635L110.363 65.0737C108.561 66.1167 106.6 66.9319 104.514 67.4777L105.216 71.2194C105.384 72.1104 104.772 72.9278 103.853 73.044L101.424 73.3513C100.516 73.4662 99.6486 72.8443 99.4834 71.9627L98.7886 68.2615C96.6709 68.2959 94.6044 68.0484 92.6314 67.5547L91.3909 70.9448C91.0943 71.7549 90.1762 72.1397 89.3416 71.8065L87.1339 70.925C86.3083 70.5953 85.8749 69.678 86.1642 68.8736L87.3616 65.545C85.5521 64.5942 83.8786 63.4153 82.3858 62.0439L79.7551 64.2193C79.1094 64.7535 78.1371 64.6399 77.5827 63.968L76.1132 62.1864C75.5623 61.5188 75.6316 60.5434 76.269 60.0063L78.8064 57.8675C77.6989 56.2086 76.8006 54.3896 76.1537 52.441L72.9767 52.9967C72.158 53.1401 71.3677 52.5736 71.2102 51.7326L70.7901 49.4956C70.6308 48.6567 71.1633 47.8522 71.9807 47.7003ZM100.423 61.4237C109.62 60.048 115.931 51.5264 114.225 42.4348C112.518 33.3433 103.527 27.5936 94.4361 29.5301C85.6545 31.4008 80.0512 39.7942 81.6545 48.3343C83.2575 56.8745 91.5402 62.7528 100.423 61.4237Z" fill="#D8DEE8"/>
<path d="M82.7838 99.5756L84.4164 99.2722C84.3264 98.1733 84.3914 97.0895 84.5946 96.0452L83.0644 95.5042C82.6465 95.3561 82.4248 94.8874 82.5686 94.4557L82.9525 93.3043C83.0976 92.87 83.556 92.6345 83.9774 92.7791L85.4852 93.2965C85.9526 92.2889 86.5591 91.3454 87.2869 90.4953L86.2505 89.2961C85.953 88.9522 85.9909 88.4185 86.3357 88.1034L87.2572 87.2602C87.6055 86.9417 88.1332 86.9623 88.4353 87.3075L89.4709 88.4925C90.3921 87.8331 91.4191 87.289 92.5352 86.8913L92.2386 85.3112C92.1512 84.845 92.4603 84.3776 92.9307 84.267L94.1897 83.9704C94.6662 83.8581 95.1255 84.149 95.2137 84.6204L95.5137 86.2177C96.7181 86.0937 97.9112 86.1458 99.0635 86.3567L99.6403 84.7533C99.8099 84.282 100.332 84.0139 100.808 84.1551L102.081 84.5325C102.563 84.6754 102.813 85.1769 102.639 85.6521L102.038 87.2946C103.127 87.7939 104.14 88.446 105.04 89.232L106.46 88.035C106.863 87.6953 107.466 87.719 107.806 88.0892L108.715 89.0766C109.058 89.4493 109.004 90.0261 108.596 90.364L107.122 91.5826C107.775 92.5467 108.294 93.6142 108.65 94.766L110.622 94.3993C111.153 94.3007 111.66 94.6218 111.753 95.1172L112.001 96.4344C112.094 96.9298 111.737 97.4067 111.205 97.5001L109.176 97.8548C109.22 99.0359 109.088 100.193 108.799 101.299L110.777 101.978C111.281 102.151 111.541 102.671 111.356 103.139L110.865 104.379C110.682 104.844 110.127 105.077 109.628 104.9L107.623 104.191C107.062 105.18 106.363 106.088 105.548 106.888L106.922 108.46C107.257 108.843 107.205 109.4 106.807 109.701L105.754 110.498C105.361 110.796 104.775 110.728 104.445 110.347L103.079 108.766C102.126 109.317 101.089 109.748 99.9859 110.037L100.357 112.016C100.446 112.487 100.122 112.919 99.6364 112.981L98.352 113.144C97.8721 113.204 97.4132 112.875 97.3258 112.409L96.9583 110.452C95.8387 110.47 94.7459 110.339 93.7025 110.078L93.0465 111.871C92.8898 112.299 92.4043 112.503 91.9627 112.326L90.7954 111.86C90.3589 111.686 90.1295 111.201 90.2827 110.775L90.9159 109.015C89.959 108.512 89.0741 107.889 88.2847 107.164L86.8935 108.314C86.5522 108.597 86.0378 108.536 85.7447 108.181L84.9678 107.239C84.6764 106.886 84.713 106.37 85.05 106.086L86.3916 104.955C85.8063 104.078 85.3311 103.116 84.9889 102.085L83.3093 102.379C82.8763 102.455 82.4588 102.156 82.3753 101.711L82.1532 100.528C82.0701 100.082 82.3516 99.6561 82.7838 99.5756ZM97.8239 106.834C102.686 106.106 106.024 101.6 105.121 96.792C104.218 91.9841 99.4642 88.9436 94.6572 89.9676C90.0137 90.9567 87.0511 95.3953 87.899 99.9118C88.747 104.427 93.1266 107.536 97.8239 106.834Z" fill="#97A6B7"/>
<path d="M99.1943 84.3911L100.349 84.1328L100.945 85.1L99.1943 84.3911Z" fill="#97A6B7"/>
<path d="M87.7734 87.0352L86.4357 87.2999L86.6212 88.2886L87.7734 87.0352Z" fill="#97A6B7"/>
<path d="M83.5469 92.7666L82.2212 93.0714L82.6955 93.7566L83.5469 92.7666Z" fill="#97A6B7"/>
<path d="M82.6641 99.6123L81.3349 99.9726L81.8983 100.545L82.6641 99.6123Z" fill="#97A6B7"/>
<path d="M86.6641 108.449L85.39 108.881L85.0293 107.843L86.6641 108.449Z" fill="#97A6B7"/>
<path d="M92.5625 112.329L91.427 112.764L91.1705 111.913L92.5625 112.329Z" fill="#97A6B7"/>
<path d="M98.8388 113.312L99.8594 112.927L98.6972 111.748L98.8388 113.312Z" fill="#97A6B7"/>
<path d="M104.334 111.102L105.516 110.618L104.351 109.646L104.334 111.102Z" fill="#97A6B7"/>
<path d="M107.125 87.7871L105.85 88.0677L106.533 88.9079L107.125 87.7871Z" fill="#97A6B7"/>
<path d="M111.547 97.3705L110.404 97.7648L110.317 96.7852L111.547 97.3705Z" fill="#97A6B7"/>
<path d="M110.359 104.885L109.245 105.288L109.009 104.544L110.359 104.885Z" fill="#97A6B7"/>
<path d="M81.4862 99.9298L83.1322 99.6238C83.0413 98.5158 83.1068 97.4234 83.3116 96.3706L81.769 95.8252C81.3476 95.6763 81.1242 95.2032 81.2693 94.7681L81.6566 93.6072C81.8026 93.1695 82.2648 92.9319 82.6901 93.0778L84.2104 93.5995C84.6817 92.5836 85.2933 91.6324 86.0272 90.7754L84.9821 89.5663C84.6821 89.2194 84.7204 88.6818 85.0682 88.3637L85.9975 87.5136C86.3488 87.1925 86.8808 87.2132 87.1855 87.5614L88.2297 88.7563C89.1586 88.0913 90.1938 87.5429 91.3194 87.1417L91.0202 85.5487C90.932 85.0787 91.2436 84.6073 91.7179 84.4959L92.9877 84.1971C93.4681 84.0839 93.9312 84.3771 94.0203 84.8523L94.3225 86.4629C95.5367 86.3381 96.7398 86.3906 97.9015 86.6028L98.483 84.9861C98.6539 84.5109 99.1807 84.2406 99.6606 84.3827L100.944 84.7632C101.43 84.9069 101.682 85.4131 101.507 85.8918L100.901 87.5476C101.999 88.0508 103.019 88.7085 103.928 89.5009L105.36 88.294C105.766 87.9518 106.374 87.9755 106.717 88.3486L107.633 89.3442C107.979 89.72 107.924 90.3015 107.513 90.642L106.028 91.8704C106.686 92.8423 107.21 93.9188 107.567 95.0797L109.556 94.71C110.092 94.6105 110.603 94.9342 110.697 95.4335L110.946 96.7614C111.04 97.2607 110.68 97.7419 110.143 97.8357L108.097 98.1934C108.143 99.3844 108.009 100.551 107.718 101.666L109.712 102.35C110.22 102.524 110.482 103.049 110.295 103.52L109.801 104.77C109.616 105.239 109.056 105.473 108.552 105.295L106.532 104.581C105.965 105.578 105.261 106.494 104.439 107.3L105.824 108.885C106.161 109.271 106.109 109.832 105.708 110.136L104.647 110.94C104.25 111.24 103.659 111.171 103.327 110.787L101.949 109.193C100.989 109.749 99.943 110.184 98.8308 110.475L99.2052 112.47C99.2943 112.945 98.9681 113.381 98.4783 113.443L97.1835 113.607C96.6997 113.668 96.237 113.336 96.1488 112.866L95.7782 110.893C94.6492 110.912 93.5473 110.78 92.4953 110.517L91.8337 112.324C91.6757 112.756 91.1859 112.961 90.7413 112.783L89.5641 112.313C89.1237 112.138 88.8926 111.648 89.0471 111.22L89.6854 109.445C88.7209 108.938 87.8286 108.309 87.0327 107.579L85.6299 108.739C85.2856 109.023 84.7674 108.963 84.4717 108.604L83.6883 107.655C83.3947 107.299 83.4317 106.779 83.7713 106.493L85.1242 105.352C84.5336 104.468 84.0546 103.498 83.7098 102.459L82.0161 102.756C81.5796 102.832 81.1582 102.53 81.0743 102.081L80.8505 100.889C80.7665 100.44 81.0506 100.011 81.4862 99.9298ZM96.6507 107.246C101.553 106.513 104.919 101.97 104.008 97.1225C103.098 92.2755 98.3048 89.2099 93.4582 90.2425C88.7764 91.2398 85.7888 95.715 86.6436 100.268C87.4984 104.821 91.9142 107.955 96.6507 107.246Z" fill="#D8DEE8"/>
<path d="M100.008 66.8316C95.8394 66.8316 92.4604 62.083 92.4604 56.2254C92.4604 50.3677 95.8394 45.6191 100.008 45.6191C104.176 45.6191 107.555 50.3677 107.555 56.2254C107.555 62.083 104.176 66.8316 100.008 66.8316Z" fill="#D8DEE8"/>
<path d="M123.071 30.5244H137.276C151.841 30.5244 163.648 42.332 163.648 56.8968V56.8973C163.648 64.6691 157.348 70.9697 149.576 70.9697H110.771C102.999 70.9697 96.699 64.6691 96.699 56.8973C96.6981 42.3315 108.506 30.5244 123.071 30.5244Z" fill="white"/>
<path d="M125.573 99.8048H134.789C144.238 99.8048 151.898 92.1445 151.898 82.6953C151.898 77.6528 147.811 73.5654 142.769 73.5654H117.593C112.551 73.5654 108.463 77.6532 108.463 82.6953C108.464 92.1449 116.124 99.8048 125.573 99.8048Z" fill="white"/>
<path d="M110.158 65.2806H137.159C140.818 65.2806 143.82 62.4759 143.82 59.0157V53.7102C143.82 50.2504 140.818 47.5413 137.159 47.6579L110.158 48.5192C106.89 48.6234 104.27 51.3136 104.27 54.5284V59.4586C104.27 62.6739 106.89 65.2806 110.158 65.2806Z" fill="#2C3854"/>
<path d="M128.508 56.0811C128.508 58.3916 130.475 60.2399 132.921 60.2089C135.389 60.1779 137.406 58.2483 137.406 55.8999C137.406 53.5515 135.389 51.7041 132.921 51.7734C130.475 51.8422 128.508 53.7706 128.508 56.0811Z" fill="white"/>
<path d="M110.264 56.4535C110.264 58.6865 112.101 60.4737 114.384 60.4448C116.688 60.4156 118.57 58.5531 118.57 56.2847C118.57 54.0164 116.688 52.2301 114.384 52.2947C112.101 52.3584 110.264 54.2204 110.264 56.4535Z" fill="white"/>
<path d="M159.851 66.7564C155.683 66.7564 152.304 62.0078 152.304 56.1502C152.304 50.2925 155.683 45.5439 159.851 45.5439C164.019 45.5439 167.398 50.2925 167.398 56.1502C167.398 62.0078 164.019 66.7564 159.851 66.7564Z" fill="#D8DEE8"/>
<path d="M165.825 60.7894C164.002 60.7894 162.525 58.713 162.525 56.1516C162.525 53.5901 164.002 51.5137 165.825 51.5137C167.647 51.5137 169.125 53.5901 169.125 56.1516C169.125 58.713 167.647 60.7894 165.825 60.7894Z" fill="#BFC8D6"/>
<path opacity="0.4" d="M123.303 90.3858C124.567 84.448 138.553 84.5913 138.933 80.7101C139.227 77.7182 131.197 74.756 130.188 74.3837C129.325 74.0652 128.468 73.7957 127.62 73.5654H142.769C147.811 73.5654 151.898 77.6528 151.898 82.6953C151.898 92.1445 144.238 99.8048 134.789 99.8048H125.573C124.688 99.8048 123.818 99.7377 122.968 99.6077C123.77 98.6138 124.293 97.5266 124.42 96.3399C124.7 93.7095 122.813 92.6868 123.303 90.3858Z" fill="#D8DEE8"/>
<path d="M129.938 75.8388C121.899 75.8388 115.383 75.0499 115.383 74.0766C115.383 73.1034 121.899 72.3145 129.938 72.3145C137.976 72.3145 144.492 73.1034 144.492 74.0766C144.492 75.0499 137.976 75.8388 129.938 75.8388Z" fill="#D8DEE8"/>
<path d="M81.3665 72.6183C83.8514 71.6653 86.5687 72.1452 88.7583 73.6642C89.5585 69.6651 92.1001 66.2802 95.8853 64.8288C102.087 62.4502 109.279 66.1627 111.947 73.1206C112.634 74.9137 112.954 76.7469 112.944 78.522C113.264 78.3214 113.606 78.1497 113.969 78.0102C117.358 76.7108 121.286 78.739 122.744 82.5405C124.202 86.3421 122.687 90.6158 119.248 91.7767C117.412 92.3965 114.506 92.4081 114.506 92.4081C114.506 92.4081 86.2407 90.3033 85.3687 90.3106C81.8869 90.3395 78.4551 87.9579 76.9985 84.1589C75.177 79.4091 77.1324 74.2423 81.3665 72.6183Z" fill="#1166CB"/>
<path d="M80.5378 72.6222C83.0227 71.6692 85.74 72.1491 87.9296 73.6681C88.7298 69.669 91.2715 66.2841 95.0567 64.8327C101.259 62.4541 108.45 66.1666 111.118 73.1245C111.806 74.9176 112.125 76.7508 112.115 78.5259C112.435 78.3253 112.777 78.1536 113.14 78.0142C116.529 76.7147 120.458 78.7429 121.915 82.5444C123.373 86.346 121.808 90.4811 118.42 91.7806C117.702 92.0556 113.677 92.412 113.677 92.412C113.677 92.412 85.412 90.3072 84.54 90.3145C81.0582 90.3434 77.6264 87.9618 76.1698 84.1628C74.3478 79.413 76.3037 74.2462 80.5378 72.6222Z" fill="#1166CB"/>
<path d="M147.463 78.8354C148.545 79.7221 148.703 81.3177 147.817 82.3994L140.511 91.3135L136.594 88.103L143.899 79.1888C144.786 78.1071 146.382 77.9492 147.463 78.8354Z" fill="white"/>
<path d="M124.558 87.269C124.716 85.8791 125.971 84.8809 127.361 85.0389L138.812 86.3414L138.24 91.374L126.788 90.0715C125.399 89.9135 124.4 88.6588 124.558 87.269Z" fill="white"/>
<path d="M138.802 92.9927C136.773 92.9927 135.127 91.3476 135.127 89.3181C135.127 87.2887 136.773 85.6436 138.802 85.6436C140.831 85.6436 142.477 87.2887 142.477 89.3181C142.477 91.3476 140.831 92.9927 138.802 92.9927Z" fill="#2C3854"/>
<path d="M126.894 85.5063L125.003 90.1489C124.721 90.8389 123.655 91.0442 122.842 90.5544C121.65 89.8369 120.347 88.6123 120.873 86.8411C121.538 84.6003 123.518 83.9551 125.147 83.8242C126.252 83.7351 127.23 84.6825 126.894 85.5063Z" fill="#2C3854"/>
<defs>
<linearGradient id="paint0_linear_5822_44334" x1="98.7426" y1="122.385" x2="99.9762" y2="122.535" gradientUnits="userSpaceOnUse">
<stop stop-color="#FF9085"/>
<stop offset="1" stop-color="#FB6FBB"/>
</linearGradient>
<linearGradient id="paint1_linear_5822_44334" x1="126.684" y1="116.221" x2="128.878" y2="64.318" gradientUnits="userSpaceOnUse">
<stop stop-color="white"/>
<stop offset="1"/>
</linearGradient>
</defs>
</svg>
