<!--Generator: Adobe Illustrator 21.0.2, SVG Export Plug-In . SVG Version: 6.00 Build 0)--><svg xmlns="http://www.w3.org/2000/svg" viewBox="0 0 157.266 36"><path fill="#2C3854" d="M35.891 19.366c.07-.91.07-1.823 0-2.733a1.055 1.055 0 00-.817-.957l-4.181-.945a1.062 1.062 0 01-.781-.71 12.47 12.47 0 00-.762-1.831 1.069 1.069 0 01.043-1.05l2.286-3.619a1.058 1.058 0 00-.082-1.277 18.167 18.167 0 00-1.903-1.901 1.052 1.052 0 00-1.254-.098L24.817 6.53a1.063 1.063 0 01-1.051.043c-.589-.3-1.201-.555-1.829-.761a1.06 1.06 0 01-.711-.781L20.257.866a1.05 1.05 0 00-.953-.816 18.014 18.014 0 00-2.669 0c-.463.033-.85.364-.953.816l-.946 4.177a1.06 1.06 0 01-.711.781c-.629.207-1.242.461-1.832.761a1.063 1.063 0 01-1.051-.043L7.52 4.258a1.052 1.052 0 00-1.254.098 18.139 18.139 0 00-1.922 1.889c-.303.352-.342.86-.094 1.253l2.286 3.619c.197.318.214.717.043 1.05-.3.59-.555 1.202-.762 1.831a1.06 1.06 0 01-.781.71l-4.169.96a1.059 1.059 0 00-.817.956c-.066.91-.066 1.823 0 2.733.033.462.364.849.817.953l4.181.945c.367.083.664.353.781.71.202.634.453 1.251.75 1.847.17.332.154.729-.043 1.046l-2.286 3.62c-.247.393-.209.901.094 1.253a18.555 18.555 0 001.907 1.917c.351.304.86.344 1.254.098l3.622-2.288a1.07 1.07 0 011.051-.043c.41.21.831.398 1.262.562a.586.586 0 00.75-.781 10.595 10.595 0 00-1.34-2.37c-.293-.41-.488-.664-.672-.906l-.106-.144c-.391-.5-.781-1.011-1.102-1.491a14.805 14.805 0 01-1.059-1.776 10.124 10.124 0 01-1.067-4.942 9.143 9.143 0 0110.01-8.71 9.142 9.142 0 018.24 8.71 10.179 10.179 0 01-1.078 4.958c-.312.616-.667 1.21-1.063 1.776-.34.48-.731.992-1.098 1.491l-.106.144c-.188.242-.391.496-.676.906a10.421 10.421 0 00-1.336 2.37.586.586 0 00.75.781c.43-.164.851-.351 1.262-.558.331-.173.73-.159 1.047.039l3.626 2.288a1.05 1.05 0 001.25-.098 18.25 18.25 0 001.922-1.921c.304-.351.344-.859.098-1.253l-2.29-3.619a1.05 1.05 0 01-.039-1.046c.301-.591.554-1.204.758-1.835.117-.358.414-.628.781-.71l4.177-.945a1.05 1.05 0 00.812-.969z"/><path fill="#2C3854" d="M14.776 31.113l.988 4.361c.049.241.251.42.496.441 1.138.113 2.285.113 3.423 0a.55.55 0 00.496-.433l.989-4.368a.559.559 0 00-.59-.664 38.74 38.74 0 01-5.212 0 .558.558 0 00-.59.663zM52.805 24.579l1.296-3.536h7.754l1.318 3.536h3.732L60.202 7.054h-4.358l-6.681 17.525h3.642zm5.185-14.011l2.637 7.117h-5.274l2.637-7.117zM71.956 12.627h-3.464v17.861h3.486v-7.229h.045c.849 1.03 2.034 1.544 3.531 1.544 1.676 0 3.039-.627 4.134-1.88 1.095-1.276 1.631-2.708 1.631-4.342 0-1.611-.536-3.044-1.587-4.297-1.05-1.253-2.413-1.88-4.089-1.88-1.587 0-2.816.559-3.642 1.701h-.045v-1.478zm-.067 5.954c0-.873.29-1.611.849-2.171.559-.56 1.251-.851 2.078-.851s1.542.291 2.101.851c.581.559.871 1.298.871 2.171 0 .895-.29 1.634-.849 2.216-.559.56-1.274.851-2.101.851s-1.542-.291-2.101-.851c-.558-.582-.848-1.321-.848-2.216zM87.275 12.627h-3.464v17.861h3.486v-7.229h.045c.849 1.03 2.034 1.544 3.531 1.544 1.676 0 3.039-.627 4.134-1.88 1.095-1.276 1.631-2.708 1.631-4.342 0-1.611-.536-3.044-1.587-4.297-1.05-1.253-2.413-1.88-4.089-1.88-1.587 0-2.816.559-3.643 1.701h-.045v-1.478zm-.067 5.954c0-.873.29-1.611.849-2.171.559-.56 1.251-.851 2.078-.851s1.542.291 2.101.851c.581.559.871 1.298.871 2.171 0 .895-.29 1.634-.849 2.216-.559.56-1.274.851-2.101.851s-1.542-.291-2.101-.851c-.557-.582-.848-1.321-.848-2.216zM98.483 15.828c0 2.552.871 4.7 2.592 6.424 1.721 1.723 3.866 2.574 6.413 2.574 1.766 0 3.419-.47 4.916-1.388 1.52-.94 2.57-2.216 3.151-3.827l-3.329-1.544c-.782 1.947-2.548 3.245-4.693 3.245-1.542 0-2.793-.537-3.799-1.589-1.005-1.074-1.497-2.395-1.497-3.939 0-1.522.514-2.82 1.52-3.872 1.005-1.052 2.279-1.589 3.776-1.589 2.168 0 3.911 1.209 4.648 3.156l3.307-1.522c-.581-1.589-1.609-2.865-3.084-3.782-1.452-.918-3.083-1.388-4.849-1.388-2.525 0-4.67.873-6.435 2.641-1.766 1.744-2.637 3.871-2.637 6.4zM125.277 12.582c-.179-.067-.403-.09-.693-.09-1.587 0-2.86.873-3.374 1.97h-.023v-1.835h-3.463v11.952h3.486v-5.058c0-2.149.983-3.559 3.24-3.559.29 0 .558.022.827.067v-3.447zM130.306 24.803c1.587 0 2.771-.582 3.576-1.723l.044.022v1.477h3.218v-7.408c0-3.133-2.033-4.812-5.184-4.812-2.614 0-4.447.94-5.475 2.843l2.659 1.589c.604-1.074 1.475-1.611 2.66-1.611 1.251 0 1.921.649 1.921 1.477 0 .582-.313.873-.938.873h-1.185c-1.34 0-2.458.201-3.553.716-1.072.515-1.765 1.544-1.765 2.954v.045c0 1.074.38 1.947 1.162 2.596.782.648 1.743.962 2.86.962zm1.006-2.552c-.894 0-1.52-.403-1.52-1.209 0-.895.805-1.365 1.81-1.365h2.101v.269c0 1.321-.894 2.305-2.391 2.305zM147.912 6.539a5.524 5.524 0 00-1.632-.246c-3.374 0-5.027 2.037-5.027 5.148v1.186h-2.146v2.977h2.146v8.975h3.486v-8.975h3.106v-2.977h-3.129v-1.253c0-1.365.782-2.104 2.123-2.104.425 0 .782.045 1.073.134V6.539zM157.199 21.625c-.246.067-.514.09-.805.09-1.363 0-2.078-.537-2.078-1.902V15.65h2.95v-3.021h-2.95v-3.74h-3.441v3.738h-2.19v3.021h2.145v4.588c0 2.798 1.631 4.499 4.737 4.499.581 0 1.118-.067 1.632-.224v-2.886z"/></svg>